<svg width="400" height="400" viewBox="0 0 400 400" fill="none" xmlns="http://www.w3.org/2000/svg">
<g clip-path="url(#clip0_244_80)">
<path fill-rule="evenodd" clip-rule="evenodd" d="M189.6 0.283C188.61 0.361 187.53 0.537 187.2 0.674C186.87 0.811 186.42 0.95 186.2 0.983C185.18 1.136 183.335 1.683 182.717 2.017C182.342 2.219 181.307 2.501 180.417 2.644C179.528 2.786 178.8 3.059 178.8 3.251C178.8 3.443 178.35 3.6 177.8 3.6C177.25 3.6 176.8 3.78 176.8 4C176.8 4.22 176.621 4.4 176.403 4.4C175.757 4.4 172.8 5.765 172.8 6.063C172.8 6.213 172.251 6.457 171.581 6.604C170.91 6.751 170.147 7.216 169.885 7.636C169.622 8.056 169.085 8.4 168.691 8.4C168.297 8.4 167.871 8.67 167.745 9C167.618 9.33 167.193 9.6 166.8 9.6C166.407 9.6 165.982 9.87 165.855 10.2C165.729 10.53 165.432 10.8 165.195 10.8C164.959 10.8 164.057 11.455 163.191 12.256C162.325 13.057 161.208 13.992 160.709 14.333C159.236 15.338 156.4 18.412 156.4 19.002C156.4 19.301 156.04 19.66 155.6 19.8C155.16 19.94 154.8 20.195 154.8 20.369C154.8 20.542 154.395 21.136 153.9 21.69C152.145 23.652 150.898 25.439 150.542 26.5C150.412 26.885 150.167 27.2 149.997 27.2C149.826 27.2 149.574 27.65 149.436 28.2C149.298 28.75 149.008 29.2 148.792 29.2C148.577 29.2 148.4 29.455 148.4 29.768C148.4 30.435 147.135 32.94 146.7 33.133C146.535 33.207 146.4 33.691 146.4 34.21C146.4 34.728 146.234 35.255 146.031 35.381C145.828 35.506 145.535 36.186 145.38 36.891C145.112 38.113 144.954 38.511 143.978 40.431C143.745 40.887 143.45 42.147 143.322 43.231C143.194 44.314 142.95 45.2 142.781 45.2C142.044 45.2 141.881 51.717 141.842 82.663L141.8 115.525L135.693 115.811C132.335 115.969 129.489 116.256 129.37 116.449C129.25 116.642 128.623 116.8 127.976 116.8C127.329 116.8 126.8 116.963 126.8 117.162C126.8 117.362 125.9 117.649 124.8 117.8C123.7 117.951 122.8 118.238 122.8 118.438C122.8 118.637 122.35 118.8 121.8 118.8C121.25 118.8 120.8 118.957 120.8 119.149C120.8 119.341 120.08 119.613 119.2 119.754C118.32 119.894 117.6 120.187 117.6 120.405C117.6 120.622 117.24 120.8 116.8 120.8C116.36 120.8 116 120.966 116 121.168C116 121.371 115.46 121.655 114.8 121.8C114.14 121.945 113.6 122.21 113.6 122.388C113.6 122.567 113.15 122.826 112.6 122.964C112.05 123.102 111.6 123.392 111.6 123.608C111.6 123.823 111.33 124 111 124C110.67 124 110.4 124.168 110.4 124.373C110.4 124.578 109.995 124.874 109.5 125.03C109.005 125.187 108.309 125.649 107.953 126.057C107.597 126.466 107.139 126.8 106.934 126.8C106.729 126.8 105.812 127.52 104.896 128.4C103.98 129.28 103.138 130 103.024 130C102.731 130 98.4 134.298 98.4 134.589C98.4 134.722 97.68 135.58 96.8 136.496C95.92 137.412 95.2 138.38 95.2 138.647C95.2 138.915 95.065 139.193 94.9 139.267C94.414 139.482 92.4 142.308 92.4 142.773C92.4 143.008 92.254 143.2 92.076 143.2C91.898 143.2 91.313 144.188 90.776 145.396C90.239 146.604 89.665 147.594 89.5 147.596C89.335 147.598 89.2 147.949 89.2 148.376C89.2 148.803 89.04 149.251 88.845 149.372C88.65 149.493 88.372 150.223 88.227 150.996C88.082 151.768 87.792 152.4 87.582 152.4C87.372 152.4 87.2 152.85 87.2 153.4C87.2 153.95 87.037 154.4 86.838 154.4C86.638 154.4 86.351 155.3 86.2 156.4C86.049 157.5 85.782 158.4 85.606 158.4C84.682 158.4 83.885 185.245 84.783 186.143C85.012 186.372 85.2 187.064 85.2 187.68C85.2 188.296 85.357 188.8 85.548 188.8C85.74 188.8 86.015 189.693 86.16 190.784C86.305 191.875 86.598 192.875 86.812 193.007C87.025 193.139 87.2 193.687 87.2 194.224C87.2 194.761 87.38 195.2 87.6 195.2C87.82 195.2 88 195.469 88 195.797C88 196.631 89.323 199.6 89.694 199.6C89.862 199.6 90 199.79 90 200.022C90 201.105 92.122 204.868 94.194 207.458C94.747 208.15 95.2 208.852 95.2 209.02C95.2 209.187 95.92 210.009 96.8 210.846C97.68 211.683 98.4 212.52 98.4 212.705C98.4 213.109 102.354 217.2 102.744 217.2C102.895 217.2 103.896 218.007 104.97 218.992C106.044 219.978 107.255 220.89 107.661 221.019C108.067 221.148 108.4 221.422 108.4 221.627C108.4 221.832 108.67 222 109 222C109.33 222 109.6 222.177 109.6 222.392C109.6 222.608 110.05 222.898 110.6 223.036C111.15 223.174 111.6 223.419 111.6 223.58C111.6 223.742 112.275 224.217 113.1 224.637C113.925 225.057 114.69 225.499 114.8 225.621C115.244 226.111 117.975 227.2 118.76 227.2C119.222 227.2 119.6 227.338 119.6 227.506C119.6 227.861 123.198 229.2 124.154 229.2C124.509 229.2 124.8 229.363 124.8 229.562C124.8 229.762 125.745 230.052 126.9 230.207C128.055 230.363 129.18 230.63 129.4 230.802C130.374 231.562 141.355 232.301 142.129 231.659C142.397 231.437 145.1 231.273 148.298 231.285C151.561 231.297 154.206 231.134 154.495 230.902C154.773 230.68 156.035 230.374 157.3 230.221C158.565 230.068 159.6 229.775 159.6 229.571C159.6 229.367 159.891 229.2 160.246 229.2C161.14 229.2 164.97 227.868 165.133 227.5C165.207 227.335 165.601 227.2 166.01 227.2C166.418 227.2 166.866 227.017 167.004 226.793C167.142 226.57 167.423 226.491 167.628 226.617C167.832 226.744 168 226.657 168 226.424C168 226.191 168.27 226 168.6 226C168.93 226 169.2 225.843 169.2 225.65C169.2 225.457 169.695 225.2 170.3 225.077C170.905 224.955 171.797 224.483 172.283 224.027C172.769 223.572 173.326 223.2 173.521 223.2C173.716 223.2 174.399 222.75 175.038 222.2C175.677 221.651 176.307 221.201 176.439 221.2C176.57 221.2 177.11 220.828 177.639 220.373C178.167 219.919 179.205 219.064 179.943 218.473C181.833 216.964 185.215 213.58 186.4 212.013C186.95 211.285 187.726 210.4 188.124 210.045C188.523 209.69 189.231 208.725 189.698 207.9C190.165 207.075 190.682 206.4 190.847 206.4C191.011 206.4 191.27 206.009 191.422 205.531C191.574 205.053 192.043 204.291 192.464 203.839C192.886 203.386 193.342 202.562 193.477 202.008C193.612 201.454 193.83 200.91 193.962 200.8C194.535 200.319 195.6 198.004 195.6 197.238C195.6 196.777 195.78 196.4 196 196.4C196.22 196.4 196.4 196.04 196.4 195.6C196.4 195.16 196.569 194.8 196.775 194.8C196.982 194.8 197.272 193.99 197.421 193C197.569 192.01 197.827 191.2 197.994 191.2C198.161 191.2 198.434 190.435 198.6 189.5C198.767 188.565 198.984 187.44 199.084 187C200.473 180.851 199.562 156.4 197.944 156.4C197.796 156.4 197.551 155.5 197.4 154.4C197.249 153.3 196.962 152.4 196.762 152.4C196.563 152.4 196.4 151.95 196.4 151.4C196.4 150.85 196.24 150.4 196.043 150.4C195.847 150.4 195.565 149.916 195.417 149.324C195.268 148.733 194.811 147.777 194.4 147.2C193.989 146.623 193.531 145.663 193.381 145.066C193.231 144.47 192.795 143.761 192.412 143.491C192.028 143.221 191.587 142.595 191.43 142.1C191.274 141.605 190.978 141.2 190.773 141.2C190.568 141.2 190.4 140.93 190.4 140.6C190.4 140.27 190.232 140 190.027 140C189.822 140 189.531 139.612 189.38 139.137C189.229 138.662 188.407 137.568 187.553 136.705C186.699 135.843 186 134.997 186 134.826C186 134.33 181.529 130 181.017 130C180.898 130 180.08 129.28 179.2 128.4C178.32 127.52 177.46 126.8 177.288 126.8C177.117 126.8 176.724 126.45 176.415 126.021C176.107 125.593 175.734 125.317 175.588 125.408C175.441 125.498 174.941 125.219 174.477 124.786C174.013 124.354 173.461 124 173.25 124C173.039 124 172.807 123.855 172.733 123.679C172.66 123.502 171.34 122.738 169.8 121.981C168.26 121.224 166.91 120.494 166.8 120.36C166.69 120.225 165.925 119.991 165.1 119.84C164.275 119.688 163.6 119.392 163.6 119.182C163.6 118.972 163.15 118.8 162.6 118.8C162.05 118.8 161.6 118.637 161.6 118.438C161.6 118.238 160.7 117.951 159.6 117.8C158.5 117.649 157.6 117.362 157.6 117.162C157.6 116.963 157.006 116.8 156.28 116.8C155.554 116.8 154.789 116.631 154.58 116.425C154.371 116.219 153.39 115.981 152.4 115.895L150.6 115.74L152.476 115.67C153.508 115.631 154.464 115.42 154.6 115.2C154.736 114.98 155.366 114.8 156 114.8C156.634 114.8 157.251 114.641 157.371 114.446C157.492 114.252 158.398 113.971 159.386 113.823C160.373 113.675 161.286 113.384 161.414 113.177C161.542 112.97 162.087 112.8 162.624 112.8C163.161 112.8 163.6 112.64 163.6 112.445C163.6 112.249 164.23 111.971 165 111.826C165.77 111.682 166.4 111.392 166.4 111.182C166.4 110.972 166.76 110.8 167.2 110.8C167.64 110.8 168 110.62 168 110.4C168 110.18 168.19 110 168.422 110C169.134 110 173.439 107.816 174 107.17C174.11 107.043 174.785 106.599 175.5 106.184C176.215 105.768 176.8 105.286 176.8 105.114C176.8 104.941 177.008 104.8 177.262 104.8C177.516 104.8 178.409 104.08 179.246 103.2C180.083 102.32 180.932 101.6 181.132 101.6C181.58 101.6 186 97.253 186 96.813C186 96.637 186.695 95.798 187.543 94.947C188.392 94.096 189.214 92.995 189.37 92.5C189.526 92.005 189.822 91.6 190.027 91.6C190.232 91.6 190.4 91.33 190.4 91C190.4 90.67 190.577 90.4 190.792 90.4C191.008 90.4 191.298 89.95 191.436 89.4C191.574 88.85 191.822 88.4 191.987 88.4C192.151 88.4 192.786 87.455 193.397 86.3C194.008 85.145 194.753 83.75 195.052 83.2C195.351 82.65 195.596 81.795 195.598 81.3C195.599 80.805 195.736 80.4 195.902 80.4C196.331 80.4 197.199 78.317 197.473 76.63C197.6 75.843 197.838 75.2 198.001 75.2C198.164 75.2 198.42 74.435 198.57 73.5C198.719 72.565 198.802 71.8 198.753 71.8C198.705 71.8 198.896 71.368 199.179 70.84C199.539 70.166 199.794 66.326 200.033 57.979C200.221 51.433 200.401 45.925 200.434 45.739C200.468 45.553 200.473 35.185 200.447 22.7L200.4 0L195.9 0.07C193.425 0.108 190.59 0.204 189.6 0.283ZM315.724 63.8C315.726 65.12 315.801 65.612 315.89 64.893C315.979 64.174 315.977 63.094 315.886 62.493C315.795 61.892 315.722 62.48 315.724 63.8ZM368.512 115.895C369.564 115.977 371.184 115.976 372.112 115.892C373.04 115.808 372.18 115.741 370.2 115.742C368.22 115.743 367.46 115.812 368.512 115.895ZM0 175.324C0 217.209 0.092 225.979 0.538 226.349C0.834 226.594 1.644 226.909 2.338 227.048C3.032 227.186 3.6 227.457 3.6 227.65C3.6 227.843 3.96 228 4.4 228C4.84 228 5.2 228.169 5.2 228.375C5.2 228.582 6.01 228.872 7 229.021C7.99 229.169 8.8 229.441 8.8 229.626C8.8 229.81 9.88 230.082 11.2 230.232C12.52 230.381 13.6 230.66 13.6 230.852C13.6 231.043 14.5 231.2 15.6 231.2C16.7 231.2 17.6 231.38 17.6 231.6C17.6 231.841 19.267 232 21.8 232H26V196.376C26 176.183 25.849 160.846 25.651 160.969C25.459 161.087 25.18 160.108 25.031 158.792C24.882 157.476 24.589 156.4 24.38 156.4C24.171 156.4 24 155.95 24 155.4C24 154.85 23.84 154.4 23.645 154.4C23.45 154.4 23.166 153.567 23.013 152.549C22.861 151.531 22.407 150.345 22.006 149.914C21.604 149.483 21.161 148.516 21.02 147.765C20.879 147.014 20.592 146.4 20.382 146.4C20.172 146.4 20 146.13 20 145.8C20 145.47 19.82 145.2 19.6 145.2C19.38 145.2 19.2 144.943 19.2 144.629C19.2 144.314 18.954 143.811 18.653 143.51C18.352 143.209 17.98 142.566 17.826 142.081C17.672 141.597 17.378 141.2 17.173 141.2C16.968 141.2 16.8 140.93 16.8 140.6C16.8 140.27 16.632 140 16.427 140C16.222 140 15.952 139.678 15.827 139.285C15.702 138.892 14.79 137.713 13.8 136.665C12.81 135.617 12 134.619 12 134.447C12 134.105 7.8 130 7.45 130C7.33 130 6.498 129.28 5.6 128.4C4.702 127.52 3.779 126.8 3.548 126.8C3.317 126.8 2.829 126.456 2.464 126.035C2.099 125.614 1.395 125.152 0.9 125.008L0 124.746V175.324ZM145.2 146.913C145.75 147.032 147.081 147.25 148.159 147.398C149.236 147.546 150.406 147.812 150.759 147.989C151.111 148.167 152.163 148.647 153.095 149.056C154.028 149.465 154.793 149.935 154.795 150.1C154.798 150.265 155.166 150.4 155.613 150.4C156.059 150.4 156.529 150.67 156.655 151C156.782 151.33 157.136 151.6 157.441 151.6C158.159 151.6 164.262 157.735 164.598 158.794C164.739 159.237 165.007 159.6 165.195 159.6C165.383 159.6 165.655 160.14 165.8 160.8C165.945 161.46 166.229 162 166.432 162C166.634 162 166.8 162.36 166.8 162.8C166.8 163.24 166.969 163.6 167.175 163.6C167.382 163.6 167.672 164.41 167.821 165.4C167.969 166.39 168.25 167.2 168.445 167.2C168.64 167.2 168.8 168.28 168.8 169.6C168.8 170.933 168.978 172 169.2 172C169.42 172 169.6 172.709 169.6 173.576C169.6 174.443 169.42 175.264 169.2 175.4C168.98 175.536 168.8 176.627 168.8 177.824C168.8 179.021 168.637 180 168.438 180C168.238 180 167.951 180.9 167.8 182C167.649 183.1 167.404 184 167.257 184C166.989 184 165.6 186.939 165.6 187.507C165.6 187.672 165.24 188.032 164.8 188.307C164.36 188.582 163.997 189.03 163.993 189.303C163.988 189.721 162.746 191.116 160.08 193.696C159.794 193.973 159.259 194.515 158.891 194.9C158.523 195.285 158.058 195.6 157.858 195.6C157.658 195.6 157.203 195.936 156.847 196.346C156.491 196.757 155.614 197.221 154.9 197.378C154.185 197.535 153.6 197.829 153.6 198.032C153.6 198.234 153.33 198.4 153 198.4C152.67 198.4 152.4 198.56 152.4 198.755C152.4 198.95 151.545 199.237 150.5 199.394C149.455 199.55 148.482 199.869 148.338 200.102C147.972 200.691 136.609 200.672 135.896 200.08C135.602 199.835 134.604 199.514 133.68 199.366C132.756 199.219 132 198.941 132 198.749C132 198.557 131.64 198.4 131.2 198.4C130.76 198.4 130.4 198.234 130.4 198.032C130.4 197.829 129.895 197.553 129.278 197.417C128.66 197.281 127.901 196.817 127.589 196.385C127.278 195.953 126.817 195.6 126.566 195.6C125.893 195.6 120 189.728 120 189.057C120 188.743 119.73 188.382 119.4 188.255C119.07 188.129 118.8 187.659 118.8 187.213C118.8 186.766 118.634 186.4 118.432 186.4C118.229 186.4 117.945 185.86 117.8 185.2C117.655 184.54 117.371 184 117.168 184C116.966 184 116.8 183.565 116.8 183.033C116.8 182.502 116.622 182.007 116.404 181.933C116.186 181.86 115.902 180.63 115.772 179.2C115.643 177.77 115.35 176.213 115.123 175.741C114.895 175.268 114.8 174.188 114.912 173.341C115.429 169.442 116.032 166.131 116.36 165.4C117.635 162.554 118 161.628 118 161.24C118 160.998 118.16 160.8 118.357 160.8C118.553 160.8 118.826 160.35 118.964 159.8C119.102 159.25 119.392 158.8 119.608 158.8C119.823 158.8 120 158.605 120 158.366C120 157.987 123.294 154.267 124.714 153.043C124.997 152.799 125.479 152.375 125.785 152.1C126.092 151.825 126.536 151.6 126.771 151.6C127.007 151.6 127.2 151.423 127.2 151.208C127.2 150.992 127.65 150.702 128.2 150.564C128.75 150.426 129.2 150.153 129.2 149.957C129.2 149.76 129.398 149.6 129.64 149.6C130.028 149.6 130.954 149.235 133.8 147.96C134.24 147.763 135.834 147.432 137.343 147.225C138.851 147.018 140.2 146.733 140.341 146.592C140.6 146.333 143.364 146.515 145.2 146.913ZM373.553 173.714C373.726 173.887 375.833 173.976 378.234 173.912L382.6 173.796L377.918 173.598C375.344 173.489 373.379 173.541 373.553 173.714ZM199.599 253.5C199.597 288.125 200.453 306.8 202.042 306.8C202.183 306.8 202.414 307.528 202.556 308.417C202.699 309.307 202.977 310.342 203.174 310.717C203.371 311.093 203.83 312.12 204.193 313C205.061 315.1 205.751 316.552 205.999 316.8C206.11 316.91 206.543 317.675 206.963 318.5C207.383 319.325 207.858 320 208.02 320C208.181 320 208.426 320.45 208.564 321C208.702 321.55 208.992 322 209.208 322C209.423 322 209.6 322.27 209.6 322.6C209.6 322.93 209.768 323.2 209.973 323.2C210.178 323.2 210.472 323.598 210.627 324.085C210.781 324.571 211.603 325.658 212.454 326.5C213.304 327.342 214 328.168 214 328.336C214 328.803 218.361 333.2 218.824 333.2C219.049 333.2 219.917 333.92 220.754 334.8C221.591 335.68 222.484 336.4 222.738 336.4C222.992 336.4 223.2 336.539 223.2 336.709C223.2 336.879 223.83 337.357 224.6 337.772C225.37 338.187 226 338.678 226 338.863C226 339.048 226.257 339.2 226.571 339.2C226.886 339.2 227.381 339.428 227.671 339.707C227.962 339.986 229.01 340.566 230 340.996C230.99 341.426 231.89 341.873 232 341.989C232.452 342.466 233.905 343.116 235.113 343.381C235.821 343.536 236.4 343.829 236.4 344.032C236.4 344.234 236.839 344.4 237.376 344.4C237.913 344.4 238.458 344.57 238.586 344.777C238.714 344.984 239.624 345.275 240.609 345.422C241.594 345.57 242.4 345.831 242.4 346.003C242.4 346.681 246.305 346.909 258 346.915C269.624 346.921 273.2 346.704 273.2 345.994C273.2 345.818 274.1 345.551 275.2 345.4C276.3 345.249 277.2 344.962 277.2 344.762C277.2 344.563 277.65 344.4 278.2 344.4C278.75 344.4 279.2 344.22 279.2 344C279.2 343.78 279.515 343.596 279.9 343.591C280.285 343.586 281.68 343.05 283 342.4C284.32 341.75 285.625 341.214 285.9 341.209C286.175 341.204 286.4 341.02 286.4 340.8C286.4 340.58 286.67 340.4 287 340.4C287.33 340.4 287.6 340.223 287.6 340.008C287.6 339.792 288.05 339.502 288.6 339.364C289.15 339.226 289.6 338.994 289.6 338.848C289.6 338.701 290.23 338.243 291 337.828C291.77 337.413 292.4 336.922 292.4 336.737C292.4 336.552 292.588 336.4 292.817 336.4C293.268 336.4 293.794 336 295.582 334.3C296.218 333.695 296.838 333.2 296.96 333.2C297.274 333.2 301.6 328.907 301.6 328.595C301.6 328.454 302.095 327.818 302.7 327.182C304.4 325.394 304.8 324.868 304.8 324.417C304.8 324.188 304.941 324 305.114 324C305.286 324 305.768 323.415 306.184 322.7C306.599 321.985 307.043 321.31 307.17 321.2C307.545 320.874 308.292 319.562 309.674 316.8C310.389 315.37 311.089 314.11 311.23 314C311.37 313.89 311.609 313.125 311.76 312.3C311.912 311.475 312.208 310.8 312.418 310.8C312.628 310.8 312.8 310.35 312.8 309.8C312.8 309.25 312.963 308.8 313.162 308.8C313.362 308.8 313.649 307.9 313.8 306.8C313.951 305.7 314.214 304.8 314.385 304.8C314.555 304.8 314.808 304.125 314.946 303.3C315.084 302.475 315.365 300.9 315.571 299.8C315.782 298.669 315.958 283.385 315.975 264.642L316.005 231.484L310.103 231.699C304.689 231.897 299.005 232.847 298.4 233.655C298.29 233.801 297.345 234.05 296.3 234.206C295.255 234.363 294.4 234.65 294.4 234.845C294.4 235.04 294.14 235.2 293.821 235.2C293.503 235.2 292.396 235.65 291.362 236.2C290.327 236.75 289.238 237.2 288.94 237.2C288.643 237.2 288.4 237.36 288.4 237.557C288.4 237.753 287.991 238.016 287.492 238.141C286.993 238.266 286.214 238.714 285.761 239.136C285.309 239.557 284.547 240.026 284.069 240.178C283.591 240.33 283.2 240.622 283.2 240.827C283.2 241.032 282.93 241.2 282.6 241.2C282.27 241.2 282 241.368 282 241.573C282 241.778 281.622 242.066 281.161 242.213C280.699 242.359 279.664 243.082 278.861 243.82C273.784 248.481 268.8 253.745 268.8 254.445C268.8 254.64 268.623 254.8 268.408 254.8C268.192 254.8 267.902 255.25 267.764 255.8C267.626 256.35 267.392 256.8 267.243 256.8C267.094 256.8 266.632 257.385 266.216 258.1C265.801 258.815 265.347 259.49 265.209 259.6C264.844 259.891 263.6 262.644 263.6 263.16C263.6 263.402 263.449 263.6 263.265 263.6C263.081 263.6 262.593 264.59 262.182 265.8C261.771 267.01 261.308 268 261.155 268C261.001 268 260.751 268.9 260.6 270C260.449 271.1 260.162 272 259.962 272C259.763 272 259.6 272.435 259.6 272.967C259.6 273.498 259.427 273.993 259.216 274.067C259.005 274.14 258.709 275.685 258.559 277.5C258.259 281.107 257.6 282.002 257.6 278.8C257.6 277.7 257.445 276.8 257.256 276.8C257.066 276.8 256.801 275.869 256.666 274.731C256.532 273.592 256.236 272.476 256.011 272.251C255.785 272.025 255.6 271.426 255.6 270.92C255.6 270.414 255.42 270 255.2 270C254.98 270 254.799 269.595 254.798 269.1C254.796 268.605 254.526 267.684 254.198 267.054C253.869 266.424 253.6 265.674 253.6 265.388C253.6 265.101 253.465 264.807 253.3 264.733C252.865 264.54 251.6 262.035 251.6 261.368C251.6 261.055 251.42 260.8 251.2 260.8C250.98 260.8 250.8 260.543 250.8 260.229C250.8 259.914 250.575 259.412 250.3 259.112C249.722 258.481 248.915 257.258 248.523 256.418C248.171 255.663 247.39 254.687 245.3 252.387C244.365 251.359 243.597 250.356 243.593 250.159C243.589 249.961 242.578 248.9 241.345 247.8C240.112 246.7 238.501 245.26 237.763 244.6C235.596 242.659 235.254 242.4 234.86 242.4C234.654 242.4 234.382 242.13 234.255 241.8C234.129 241.47 233.659 241.2 233.213 241.2C232.766 241.2 232.4 241.032 232.4 240.827C232.4 240.622 231.995 240.326 231.5 240.17C231.005 240.013 230.379 239.572 230.109 239.188C229.839 238.805 229.121 238.367 228.513 238.214C227.905 238.061 227.316 237.816 227.204 237.668C226.765 237.091 224.433 236 223.638 236C223.177 236 222.8 235.82 222.8 235.6C222.8 235.38 222.451 235.2 222.024 235.2C221.597 235.2 221.149 235.04 221.028 234.845C220.907 234.65 220.133 234.364 219.307 234.209C218.482 234.054 217.625 233.81 217.403 233.667C216.334 232.976 213.943 232.355 211.487 232.13C209.995 231.994 208.679 231.728 208.563 231.541C208.448 231.353 206.383 231.2 203.976 231.2H199.6L199.599 253.5ZM0 289.4C0 306.225 0.142 316 0.386 316C0.598 316 6.448 310.318 13.386 303.373C27.612 289.133 27.427 289.41 24.481 286.681C24.195 286.416 23.745 285.966 23.481 285.681C23.216 285.395 22.773 284.945 22.496 284.681C21.841 284.055 15.945 278.159 15.319 277.504C15.055 277.227 14.605 276.78 14.319 276.511C14.034 276.242 13.577 275.792 13.305 275.511C11.919 274.08 6.532 268.681 6.081 268.272C5.795 268.012 5.345 267.566 5.081 267.281C4.816 266.995 4.369 266.545 4.086 266.281C3.432 265.669 2.731 264.968 2.119 264.314C1.402 263.548 0.463 262.8 0.217 262.8C0.098 262.8 0 274.77 0 289.4Z" fill="#FBAC84"/>
<path fill-rule="evenodd" clip-rule="evenodd" d="M373.751 53.6001C373.751 56.1301 373.816 57.1652 373.896 55.9002C373.975 54.6352 373.975 52.5651 373.896 51.3001C373.816 50.0351 373.751 51.0701 373.751 53.6001ZM399.2 67.2001C399.2 67.4201 398.943 67.6001 398.629 67.6001C398.314 67.6001 397.819 67.8371 397.529 68.1271C397.238 68.4161 396.46 69.0012 395.8 69.4272C393.917 70.6402 388.4 75.7611 388.4 76.2951C388.4 76.4741 387.584 77.3881 386.587 78.3261C385.589 79.2651 384.868 80.1871 384.984 80.3751C385.1 80.5621 384.926 80.8191 384.598 80.9461C384.269 81.0721 384 81.4811 384 81.8541C384 82.2281 383.881 82.4141 383.736 82.2691C383.496 82.0291 382.924 82.7922 382.138 84.4002C381.977 84.7302 381.61 85.2381 381.322 85.5291C381.035 85.8191 380.8 86.3141 380.8 86.6291C380.8 86.9431 380.609 87.2001 380.376 87.2001C380.143 87.2001 380.051 87.3601 380.172 87.5551C380.293 87.7501 380.135 88.1222 379.821 88.3822C379.508 88.6422 379.136 89.3831 378.994 90.0281C378.852 90.6721 378.571 91.2001 378.368 91.2001C378.166 91.2001 377.994 91.6051 377.987 92.1001C377.98 92.5951 377.71 93.3491 377.387 93.7761C377.064 94.2041 376.8 94.9691 376.8 95.4761C376.8 95.9841 376.62 96.4002 376.4 96.4002C376.18 96.4002 376 96.8391 376 97.3761C376 97.9131 375.837 98.4542 375.637 98.5772C375.438 98.7002 375.148 99.7462 374.993 100.9C374.837 102.055 374.549 103.201 374.351 103.446C373.854 104.063 373.542 120.131 373.465 149L373.4 173.4L376.8 173.522C380.736 173.663 387.994 172.966 388.568 172.392C388.784 172.176 389.464 172 390.08 172C390.696 172 391.2 171.82 391.2 171.6C391.2 171.38 391.515 171.201 391.9 171.202C392.899 171.205 396.502 169.895 397.129 169.301C397.419 169.025 397.968 168.8 398.349 168.8C398.729 168.8 399.256 168.584 399.52 168.32C400.146 167.694 400.225 66.8002 399.6 66.8002C399.38 66.8002 399.2 66.9801 399.2 67.2001ZM49.1932 115.734C49.0792 115.852 48.5012 116.013 47.9082 116.092C47.3152 116.171 46.7032 116.363 46.5482 116.518C46.3932 116.673 45.8472 116.8 45.3332 116.8C44.8202 116.8 44.4002 116.98 44.4002 117.2C44.4002 117.42 44.1362 117.6 43.8142 117.6C43.0492 117.6 40.4002 118.865 40.4002 119.231C40.4002 119.386 39.9502 119.626 39.4002 119.764C38.8502 119.902 38.4002 120.192 38.4002 120.408C38.4002 120.623 38.2102 120.8 37.9792 120.8C37.3252 120.8 31.4932 126.837 30.6342 128.403C25.8632 137.095 26.2682 131.852 26.2322 185.433L26.2002 231.867L30.5002 231.96C33.3342 232.021 34.8002 231.907 34.8002 231.626C34.8002 231.381 35.6522 231.2 36.8002 231.2C37.9002 231.2 38.8002 231.043 38.8002 230.852C38.8002 230.66 39.8802 230.381 41.2002 230.232C42.5202 230.082 43.6002 229.812 43.6002 229.631C43.6002 229.45 44.3282 229.186 45.2172 229.044C46.1072 228.901 47.1422 228.62 47.5172 228.418C47.8932 228.216 49.9472 227.224 52.0832 226.215C54.2192 225.205 56.0812 224.192 56.2222 223.964C56.3632 223.737 56.8652 223.382 57.3392 223.176C58.4812 222.68 59.5092 222 60.8392 220.863C61.4412 220.348 62.0712 219.898 62.2382 219.863C62.9232 219.721 70.0002 213.115 70.0002 212.618C70.0002 212.477 70.4082 211.965 70.9072 211.481C72.2782 210.149 75.2002 206.189 75.2002 205.663C75.2002 205.408 75.3592 205.2 75.5542 205.2C75.7492 205.2 76.2072 204.615 76.5722 203.9C76.9382 203.185 77.8572 201.43 78.6162 200C79.3742 198.57 79.9962 197.247 79.9972 197.06C80.0002 196.709 80.9842 194.335 81.6422 193.091C81.8492 192.701 82.1282 191.576 82.2632 190.591C82.3982 189.606 82.6452 188.8 82.8112 188.8C84.1592 188.8 85.0412 136.546 83.7002 136.1C83.4252 136.008 83.2002 135.498 83.2002 134.967C83.2002 134.435 83.0202 134 82.8002 134C82.5802 134 82.4002 133.623 82.4002 133.162C82.4002 132.277 81.2172 130 80.7572 130C80.6082 130 80.3772 129.563 80.2432 129.029C79.8262 127.368 71.8102 119.6 70.5132 119.6C70.2312 119.6 70.0002 119.42 70.0002 119.2C70.0002 118.98 69.7302 118.8 69.4002 118.8C69.0702 118.8 68.8002 118.64 68.8002 118.445C68.8002 118.249 68.1702 117.971 67.4002 117.826C66.6302 117.682 66.0002 117.392 66.0002 117.182C66.0002 116.972 65.5652 116.8 65.0332 116.8C64.5022 116.8 63.9932 116.578 63.9022 116.306C63.7362 115.807 49.6542 115.259 49.1932 115.734ZM200.161 173.6C200.161 177.01 200.222 178.405 200.297 176.7C200.372 174.995 200.372 172.205 200.297 170.5C200.222 168.795 200.161 170.19 200.161 173.6ZM257.693 180.8C257.693 181.57 257.775 181.885 257.876 181.5C257.976 181.115 257.976 180.485 257.876 180.1C257.775 179.715 257.693 180.03 257.693 180.8ZM344.5 259.843C328.825 275.54 316 288.654 316 288.985C316 289.61 358.43 290.099 369.4 289.6L373.8 289.4L373.903 260.98C373.983 238.64 373.898 232.426 373.503 231.932C373.069 231.39 369.085 235.225 344.5 259.843ZM144.1 231.896C145.365 231.975 147.435 231.975 148.7 231.896C149.965 231.816 148.93 231.751 146.4 231.751C143.87 231.751 142.835 231.816 144.1 231.896ZM142.093 282.4C142.093 283.17 142.175 283.485 142.276 283.1C142.376 282.715 142.376 282.085 142.276 281.7C142.175 281.315 142.093 281.63 142.093 282.4ZM199.764 289C199.763 292.74 199.823 294.324 199.897 292.52C199.971 290.715 199.972 287.655 199.898 285.72C199.825 283.784 199.764 285.26 199.764 289Z" fill="#FCD7C4"/>
<path fill-rule="evenodd" clip-rule="evenodd" d="M316.133 35.0389C316.267 68.0299 316.412 73.1999 317.206 73.1999C317.382 73.1999 317.649 74.0999 317.8 75.1999C317.951 76.2999 318.238 77.1999 318.438 77.1999C318.637 77.1999 318.8 77.6499 318.8 78.1999C318.8 78.7499 318.964 79.1999 319.165 79.1999C319.366 79.1999 319.651 79.9199 319.8 80.7999C319.949 81.6799 320.234 82.3999 320.435 82.3999C320.636 82.3999 320.8 82.7179 320.8 83.1069C320.8 83.4959 321.25 84.4769 321.8 85.2859C322.35 86.0949 322.8 86.9189 322.8 87.1169C322.8 87.3139 323.251 87.9989 323.802 88.6379C324.354 89.2769 324.915 90.1449 325.05 90.5659C325.185 90.9869 325.724 91.7609 326.248 92.2839C326.772 92.8079 327.2 93.3809 327.2 93.5569C327.2 93.7329 327.83 94.5259 328.6 95.3189C329.37 96.1119 330 96.8309 330 96.9169C330 97.2209 334.318 101.6 334.617 101.6C334.783 101.6 335.512 102.21 336.237 102.956C336.961 103.702 337.626 104.241 337.714 104.153C337.802 104.065 338.411 104.489 339.068 105.096C340.43 106.356 341.116 106.813 343.5 108.056C344.435 108.543 345.2 109.076 345.2 109.239C345.2 109.403 345.74 109.655 346.4 109.8C347.06 109.945 347.6 110.229 347.6 110.432C347.6 110.634 347.96 110.8 348.4 110.8C348.84 110.8 349.2 110.964 349.2 111.165C349.2 111.366 349.92 111.651 350.8 111.8C351.68 111.949 352.4 112.234 352.4 112.435C352.4 112.636 352.85 112.8 353.4 112.8C353.95 112.8 354.4 112.963 354.4 113.162C354.4 113.362 355.3 113.649 356.4 113.8C357.499 113.951 358.5 114.238 358.623 114.437C358.746 114.637 359.276 114.8 359.8 114.8C360.324 114.8 360.864 114.98 361 115.2C361.147 115.438 363.72 115.6 367.371 115.6H373.495L373.758 114.1C374.781 108.249 373.503 42.8949 372.357 42.4669C372.161 42.3929 372 41.8979 372 41.3669C372 40.8349 371.843 40.3999 371.651 40.3999C371.459 40.3999 371.181 39.6439 371.034 38.7199C370.886 37.7959 370.596 36.8369 370.39 36.5879C370.184 36.3399 369.944 35.7909 369.857 35.3689C369.604 34.1409 368.649 31.9999 368.356 31.9999C368.208 31.9999 367.963 31.5049 367.812 30.8999C367.661 30.2949 367.102 29.2269 366.569 28.5269C366.036 27.8259 365.6 27.0529 365.6 26.8089C365.6 26.5639 365.15 25.9139 364.6 25.3639C364.05 24.8139 363.6 24.1999 363.6 23.9999C363.6 23.7999 363.195 23.2059 362.7 22.6799C360.53 20.3729 359.629 19.2779 359.519 18.8109C359.375 18.2059 355.21 13.9999 354.754 13.9999C354.576 13.9999 353.742 13.3039 352.9 12.4539C352.058 11.6029 350.971 10.7809 350.485 10.6269C349.998 10.4719 349.6 10.1779 349.6 9.97293C349.6 9.76793 349.33 9.59993 349 9.59993C348.67 9.59993 348.4 9.43193 348.4 9.22693C348.4 9.02193 347.995 8.72593 347.5 8.56993C347.005 8.41293 346.319 7.96293 345.976 7.56993C345.633 7.17593 344.868 6.73193 344.276 6.58293C343.684 6.43493 343.2 6.15293 343.2 5.95693C343.2 5.75993 342.84 5.59993 342.4 5.59993C341.96 5.59993 341.6 5.40893 341.6 5.17593C341.6 4.94293 341.432 4.85593 341.228 4.98293C341.023 5.10893 340.742 5.02993 340.604 4.80693C340.466 4.58293 339.913 4.39993 339.376 4.39993C338.839 4.39993 338.4 4.21993 338.4 3.99993C338.4 3.77993 338.13 3.59993 337.8 3.59993C337.47 3.59993 337.2 3.43693 337.2 3.23793C337.2 3.03793 336.3 2.75093 335.2 2.59993C334.1 2.44893 333.2 2.16193 333.2 1.96193C333.2 1.76293 332.761 1.59993 332.224 1.59993C331.687 1.59993 331.129 1.40893 330.985 1.17593C330.841 0.94293 330.336 0.80293 329.862 0.86393C329.388 0.92493 328.77 0.83193 328.489 0.65693C328.208 0.48193 325.281 0.23493 321.984 0.10893L315.991 -0.12207L316.133 35.0389ZM0 57.7999C0 72.4299 0.152 84.3999 0.338 84.3999C0.864 84.3999 13.563 71.6959 13.3 71.4329C13.172 71.3049 13.272 71.1999 13.523 71.1999C14.117 71.1999 21.2 64.1169 21.2 63.5229C21.2 63.2719 21.305 63.1719 21.433 63.2999C21.562 63.4279 22.642 62.5499 23.833 61.3489C26.596 58.5639 26.74 57.1659 24.478 55.0809C21.96 52.7599 17.346 47.9869 17.485 47.8479C17.582 47.7519 17.296 47.5569 16.851 47.4159C16.405 47.2749 15.933 46.8169 15.8 46.3999C15.667 45.9829 15.217 45.5329 14.8 45.3999C14.383 45.2669 13.933 44.8169 13.8 44.3999C13.667 43.9829 13.217 43.5329 12.8 43.3999C12.383 43.2669 11.93 42.8079 11.794 42.3799C11.657 41.9509 11.392 41.5999 11.204 41.5999C10.758 41.5999 8.4 39.2419 8.4 38.7959C8.4 38.6079 8.049 38.3429 7.62 38.2059C7.192 38.0699 6.733 37.6169 6.6 37.1999C6.467 36.7829 6.017 36.3329 5.6 36.1999C5.183 36.0669 4.733 35.6169 4.6 35.1999C4.467 34.7829 4.017 34.3329 3.6 34.1999C3.183 34.0669 2.729 33.6059 2.592 33.1739C2.455 32.7419 2.208 32.4709 2.044 32.5729C1.88 32.6739 1.493 32.4069 1.185 31.9789C0.876 31.5499 0.483 31.1999 0.312 31.1999C0.14 31.1999 0 43.1699 0 57.7999ZM222 115.852C221.035 116.027 220.551 116.198 218.4 117.123C217.85 117.36 216.813 117.669 216.097 117.809C215.38 117.95 214.883 118.211 214.993 118.389C215.199 118.722 212.839 120 212.016 120C211.761 120 211.664 120.18 211.8 120.4C211.936 120.62 211.866 120.8 211.645 120.8C211.004 120.8 204.927 126.97 204.622 127.93C204.47 128.409 204.178 128.8 203.973 128.8C203.768 128.8 203.6 129.07 203.6 129.4C203.6 129.73 203.42 130 203.2 130C202.98 130 202.819 130.135 202.843 130.3C202.93 130.904 202.297 132.4 201.953 132.4C201.759 132.4 201.6 132.749 201.6 133.176C201.6 133.603 201.43 134.058 201.223 134.186C201.016 134.314 200.723 135.269 200.573 136.309C200.422 137.349 200.145 138.395 199.957 138.632C199.431 139.297 199.485 163.473 200.019 166.542C200.314 168.235 200.383 171.259 200.214 175.082C199.718 186.289 199.574 208.8 199.998 208.8C200.219 208.8 200.4 209.329 200.4 209.976C200.4 210.623 200.592 211.272 200.827 211.417C201.062 211.562 201.161 211.923 201.048 212.22C200.934 212.516 201.091 213.263 201.396 213.879C201.701 214.496 202.138 215.495 202.366 216.1C202.594 216.705 202.965 217.2 203.19 217.2C203.416 217.2 203.6 217.56 203.6 218C203.6 218.44 203.78 218.8 204 218.8C204.22 218.8 204.4 219.07 204.4 219.4C204.4 219.73 204.591 220 204.824 220C205.057 220 205.144 220.167 205.018 220.371C204.892 220.575 205.142 220.855 205.574 220.992C206.006 221.129 206.47 221.592 206.606 222.02C206.743 222.449 206.997 222.8 207.173 222.8C207.348 222.8 208.371 223.664 209.446 224.721C210.521 225.777 211.715 226.761 212.1 226.908C212.485 227.055 212.8 227.34 212.8 227.541C212.8 227.943 214.307 228.522 215.1 228.426C215.375 228.392 215.6 228.553 215.6 228.782C215.6 229.012 215.87 229.2 216.2 229.2C216.53 229.2 216.8 229.369 216.8 229.575C216.8 229.782 217.61 230.072 218.6 230.221C219.59 230.369 220.4 230.65 220.4 230.845C220.4 231.04 220.929 231.2 221.576 231.2C222.223 231.2 222.864 231.38 223 231.6C223.147 231.838 225.671 232 229.224 232C232.941 232 235.2 231.849 235.2 231.6C235.2 231.38 235.841 231.2 236.624 231.2C237.407 231.2 237.948 231.04 237.828 230.845C237.707 230.649 238.444 230.364 239.467 230.211C240.489 230.058 241.581 229.676 241.895 229.362C242.208 229.049 242.658 228.912 242.894 229.058C243.145 229.213 243.208 229.136 243.045 228.874C242.877 228.601 243.169 228.323 243.784 228.168C244.343 228.028 244.8 227.753 244.8 227.557C244.8 227.36 245.105 227.2 245.477 227.2C246.173 227.2 252.8 220.706 252.8 220.024C252.8 219.816 253.159 219.394 253.597 219.087C254.036 218.78 254.508 217.96 254.647 217.264C254.786 216.569 255.058 216 255.25 216C255.443 216 255.6 215.73 255.6 215.4C255.6 215.07 255.778 214.8 255.995 214.8C256.213 214.8 256.506 214.08 256.646 213.2C256.787 212.32 257.021 211.6 257.166 211.6C257.311 211.6 257.474 211.015 257.528 210.3C257.581 209.585 257.8 208.94 258.013 208.867C258.561 208.678 258.533 182.693 257.984 182.144C257.708 181.868 257.642 178.914 257.79 173.364C258.322 153.327 258.413 139.053 258.011 138.651C257.785 138.425 257.6 137.837 257.6 137.344C257.6 136.851 257.441 136.349 257.246 136.229C257.051 136.108 256.802 135.513 256.692 134.905C256.413 133.369 255.498 131.103 254.9 130.471C254.625 130.181 254.4 129.686 254.4 129.371C254.4 129.057 254.22 128.8 254 128.8C253.78 128.8 253.6 128.557 253.6 128.26C253.6 127.473 247.012 120.8 246.235 120.8C245.872 120.8 245.471 120.53 245.345 120.2C245.218 119.87 244.774 119.6 244.357 119.6C243.941 119.6 243.6 119.462 243.6 119.294C243.6 118.973 240.68 117.6 239.997 117.6C239.779 117.6 239.6 117.42 239.6 117.2C239.6 116.98 239.186 116.8 238.68 116.8C238.174 116.8 237.535 116.575 237.26 116.3C236.763 115.802 224.297 115.436 222 115.852ZM26.271 231.863C26.126 232.007 26.008 258.017 26.008 289.663V347.2H26.843C27.584 347.2 30.367 344.632 30.391 343.927C30.396 343.777 30.751 343.543 31.18 343.406C31.608 343.27 32.067 342.817 32.2 342.4C32.333 341.983 32.805 341.525 33.251 341.384C33.696 341.243 33.96 341.027 33.837 340.904C33.593 340.66 35.132 339.2 35.634 339.2C35.806 339.2 36.065 338.826 36.21 338.37C36.354 337.913 36.566 337.632 36.679 337.746C36.957 338.023 37.96 337.072 37.752 336.729C37.662 336.58 37.951 336.343 38.394 336.202C38.837 336.061 39.2 335.806 39.2 335.634C39.2 335.132 40.66 333.593 40.904 333.837C41.027 333.96 41.243 333.696 41.384 333.251C41.525 332.805 41.983 332.333 42.4 332.2C42.817 332.067 43.27 331.608 43.406 331.18C43.543 330.751 43.787 330.4 43.95 330.4C44.243 330.4 48.39 326.441 50.475 324.17C51.066 323.527 51.786 322.784 52.075 322.519C52.364 322.255 52.798 321.805 53.04 321.519C53.283 321.234 54.228 320.318 55.14 319.484C56.053 318.65 56.8 317.807 56.8 317.611C56.8 317.415 57.174 317.135 57.63 316.99C58.087 316.846 58.374 316.641 58.27 316.536C58.165 316.431 58.705 315.773 59.47 315.073C60.235 314.373 61.072 313.566 61.33 313.281C61.589 312.995 62.034 312.545 62.319 312.281C62.928 311.717 63.354 311.279 65.077 309.446C65.779 308.699 66.438 308.171 66.54 308.274C66.643 308.376 66.846 308.087 66.99 307.63C67.135 307.174 67.415 306.8 67.611 306.8C67.807 306.8 68.65 306.053 69.484 305.14C70.318 304.228 71.234 303.283 71.519 303.04C71.805 302.798 72.255 302.364 72.519 302.075C72.784 301.786 73.527 301.066 74.17 300.475C76.441 298.39 80.4 294.243 80.4 293.95C80.4 293.787 80.751 293.543 81.18 293.406C81.608 293.27 82.067 292.817 82.2 292.4C82.333 291.983 82.755 291.541 83.139 291.419C83.602 291.272 83.869 290.721 83.932 289.779C84.025 288.397 83.267 287.599 55.624 259.98C40.003 244.371 27.066 231.6 26.877 231.6C26.688 231.6 26.415 231.718 26.271 231.863ZM141.6 256.332C141.6 272.181 141.74 280.84 142 281C142.25 281.155 142.4 285.204 142.4 291.824C142.4 298.061 142.552 302.4 142.771 302.4C142.975 302.4 143.266 303.39 143.417 304.6C143.568 305.81 143.851 306.8 144.046 306.8C144.241 306.8 144.4 307.25 144.4 307.8C144.4 308.35 144.569 308.8 144.775 308.8C144.982 308.8 145.278 309.645 145.433 310.678C145.588 311.711 146.046 312.912 146.452 313.348C146.858 313.784 147.302 314.739 147.44 315.47C147.577 316.202 147.849 316.8 148.045 316.8C148.24 316.8 148.4 317.07 148.4 317.4C148.4 317.73 148.577 318 148.792 318C149.008 318 149.298 318.45 149.436 319C149.574 319.55 149.828 320 150 320C150.172 320 150.426 320.45 150.564 321C150.702 321.55 150.992 322 151.208 322C151.423 322 151.6 322.27 151.6 322.6C151.6 322.93 151.768 323.2 151.973 323.2C152.178 323.2 152.454 323.515 152.586 323.9C152.718 324.285 153.807 325.657 155.007 326.948C156.206 328.24 157.072 329.483 156.932 329.71C156.791 329.938 156.851 330.015 157.065 329.883C157.279 329.751 157.712 330.017 158.027 330.475C158.342 330.933 158.831 331.508 159.114 331.754C159.397 331.999 159.879 332.425 160.185 332.7C160.492 332.975 160.891 333.202 161.071 333.204C161.252 333.206 162.03 333.924 162.8 334.8C163.57 335.676 164.475 336.394 164.812 336.396C165.148 336.398 165.676 336.75 165.985 337.179C166.293 337.607 166.681 337.874 166.845 337.772C167.01 337.67 167.383 337.921 167.673 338.329C167.963 338.737 168.702 339.195 169.316 339.347C169.93 339.499 170.322 339.803 170.187 340.022C170.051 340.241 170.089 340.383 170.27 340.338C170.695 340.232 173.758 341.706 173.933 342.1C174.007 342.265 174.412 342.4 174.833 342.4C175.255 342.4 175.6 342.564 175.6 342.765C175.6 342.966 176.32 343.251 177.2 343.4C178.08 343.549 178.8 343.834 178.8 344.035C178.8 344.236 179.25 344.4 179.8 344.4C180.35 344.4 180.8 344.563 180.8 344.762C180.8 344.962 181.7 345.249 182.8 345.4C183.901 345.551 184.7 345.838 184.577 346.038C184.454 346.237 185.083 346.4 185.976 346.4C186.869 346.4 187.6 346.535 187.6 346.7C187.601 347.3 199.586 347.75 200.162 347.172C200.51 346.823 200.466 298.829 200.118 298.28C199.951 298.016 199.693 293.03 199.546 287.2C199.398 281.37 199.203 276.24 199.112 275.8C198.778 274.184 198.282 272.59 197.991 272.2C197.604 271.681 197.022 269.146 197.142 268.5C197.193 268.225 197.047 268 196.818 268C196.588 268 196.4 267.739 196.4 267.419C196.4 267.099 195.68 265.471 194.8 263.8C193.92 262.129 193.2 260.49 193.2 260.157C193.2 259.825 193.02 259.664 192.8 259.8C192.58 259.936 192.4 259.767 192.4 259.424C192.4 259.081 192.22 258.8 192 258.8C191.78 258.8 191.6 258.618 191.6 258.397C191.6 258.175 191.06 257.248 190.4 256.337C189.74 255.425 189.2 254.426 189.2 254.116C189.2 253.806 189.02 253.664 188.8 253.8C188.58 253.936 188.4 253.756 188.4 253.4C188.4 253.044 188.22 252.864 188 253C187.78 253.136 187.6 253.093 187.6 252.905C187.6 252.492 186.592 251.137 185.1 249.546C184.495 248.9 184 248.188 184 247.963C184 247.737 183.829 247.658 183.62 247.788C183.411 247.917 182.837 247.477 182.345 246.811C181.852 246.145 181.258 245.597 181.025 245.593C180.791 245.589 180.176 245.139 179.658 244.593C179.14 244.047 178.555 243.6 178.358 243.6C178.161 243.6 177.998 243.375 177.995 243.1C177.993 242.825 177.273 242.256 176.395 241.836C175.518 241.415 174.8 240.955 174.8 240.813C174.8 240.67 174.078 240.235 173.196 239.846C172.261 239.434 171.702 238.958 171.857 238.707C172.009 238.461 171.937 238.391 171.689 238.545C171.451 238.692 171.142 238.63 171.004 238.407C170.866 238.183 170.403 238 169.976 238C169.549 238 169.2 237.82 169.2 237.6C169.2 237.38 168.93 237.2 168.6 237.2C168.27 237.2 168 237.036 168 236.835C168 236.634 167.28 236.349 166.4 236.2C165.52 236.051 164.8 235.766 164.8 235.565C164.8 235.364 164.53 235.2 164.2 235.2C163.87 235.2 163.6 235.04 163.6 234.845C163.6 234.65 162.764 234.365 161.741 234.212C160.719 234.059 159.594 233.781 159.241 233.596C158.582 233.249 157.455 232.814 156.4 232.501C156.07 232.403 152.605 232.23 148.7 232.117L141.6 231.911V256.332ZM373.525 289.408C373.41 289.523 360.465 289.655 344.758 289.702L316.2 289.787L338.6 289.998C350.92 290.115 360.415 290.253 359.7 290.305C358.985 290.357 358.4 290.557 358.4 290.749C358.4 291.066 355.417 291.799 354.7 291.659C354.535 291.626 354.4 291.78 354.4 292C354.4 292.22 353.95 292.4 353.4 292.4C352.85 292.4 352.4 292.58 352.4 292.8C352.4 293.02 351.961 293.2 351.424 293.2C350.887 293.2 350.334 293.383 350.196 293.607C350.058 293.83 349.777 293.909 349.572 293.783C349.368 293.656 349.2 293.743 349.2 293.976C349.2 294.209 348.84 294.4 348.4 294.4C347.96 294.4 347.6 294.566 347.6 294.768C347.6 294.971 347.06 295.255 346.4 295.4C345.74 295.545 345.2 295.797 345.2 295.961C345.2 296.124 344.377 296.669 343.371 297.172C342.365 297.674 341.446 298.336 341.328 298.642C341.211 298.949 340.877 299.2 340.586 299.2C340.295 299.2 339.819 299.427 339.529 299.705C339.238 299.983 338.46 300.556 337.8 300.979C337.14 301.402 336.272 302.165 335.871 302.674C335.47 303.183 334.956 303.6 334.728 303.6C334.5 303.6 333.37 304.59 332.217 305.8C331.064 307.01 330.264 308 330.44 308C330.616 308 330.112 308.63 329.319 309.4C328.526 310.17 327.714 310.8 327.515 310.8C327.316 310.8 327.247 310.953 327.363 311.139C327.478 311.326 327.259 311.821 326.877 312.239C326.494 312.658 325.645 313.855 324.99 314.899C324.336 315.944 323.654 316.799 323.476 316.799C323.298 316.8 323.264 316.98 323.4 317.2C323.536 317.42 323.457 317.6 323.224 317.6C322.991 317.6 322.8 317.855 322.8 318.167C322.8 318.478 322.612 318.796 322.382 318.873C322.152 318.949 321.935 319.402 321.899 319.878C321.863 320.355 321.706 320.665 321.55 320.569C321.393 320.472 321.146 320.935 321.001 321.597C320.855 322.258 320.571 322.8 320.368 322.8C320.166 322.8 320 323.178 320 323.64C320 324.403 319.294 326.333 318.374 328.083C318.177 328.458 317.898 329.497 317.755 330.391C317.612 331.286 317.339 332.114 317.147 332.232C316.956 332.351 316.8 332.876 316.8 333.4C316.8 333.924 316.654 334.443 316.476 334.553C315.623 335.08 315.458 359.619 316.306 359.902C316.578 359.993 316.8 360.682 316.8 361.433C316.8 362.185 316.96 362.8 317.155 362.8C317.35 362.8 317.63 363.606 317.778 364.591C317.925 365.576 318.216 366.486 318.423 366.614C318.63 366.742 318.8 367.287 318.8 367.824C318.8 368.361 318.957 368.8 319.149 368.8C319.341 368.8 319.62 369.561 319.768 370.492C319.97 371.756 320.134 372.035 320.413 371.592C320.699 371.14 320.789 371.261 320.794 372.1C320.797 372.705 320.991 373.2 321.224 373.2C321.457 373.2 321.552 373.355 321.435 373.544C321.182 373.952 322.068 375.992 322.5 375.997C322.665 375.999 322.8 376.27 322.8 376.6C322.8 376.93 322.991 377.2 323.224 377.2C323.457 377.2 323.536 377.38 323.4 377.6C323.264 377.82 323.315 378 323.513 378C323.712 378 324.217 378.675 324.637 379.5C325.057 380.325 325.694 381.221 326.054 381.491C326.414 381.761 326.82 382.424 326.955 382.964C327.091 383.504 327.561 384.061 328.001 384.2C328.44 384.34 328.8 384.623 328.8 384.83C328.8 385.036 329.25 385.597 329.8 386.075C330.35 386.553 330.8 387.119 330.8 387.332C330.8 387.794 333.42 390.4 333.884 390.4C334.355 390.4 336.4 392.364 336.4 392.816C336.4 393.027 336.571 393.2 336.78 393.2C337.342 393.2 340.893 395.653 341.687 396.59C342.064 397.035 342.379 397.275 342.387 397.123C342.394 396.971 343.34 397.465 344.489 398.221C347.362 400.114 346.087 400.041 374.4 399.914L399.8 399.8L399.903 377.674C399.973 362.876 399.873 355.631 399.603 355.798C399.382 355.935 399.2 356.397 399.2 356.824C399.2 357.251 399.02 357.6 398.8 357.6C398.58 357.6 398.4 357.87 398.4 358.2C398.4 358.53 398.22 358.8 398 358.8C397.78 358.8 397.636 358.935 397.679 359.1C397.844 359.722 397.059 361.419 396.388 361.891C396.005 362.161 395.576 362.843 395.434 363.407C395.292 363.971 395.047 364.361 394.888 364.273C394.73 364.185 394.112 364.628 393.516 365.256C392.92 365.885 392.493 366.4 392.569 366.4C392.644 366.4 391.986 367.12 391.106 368C390.226 368.88 389.266 369.6 388.973 369.6C388.68 369.6 388.296 369.825 388.12 370.1C387.692 370.769 385.436 372 384.638 372C384.287 372 384 372.157 384 372.349C384 372.541 383.244 372.819 382.32 372.966C381.396 373.114 380.44 373.401 380.196 373.603C379.952 373.805 378.819 374.023 377.677 374.086C376.535 374.148 375.6 374.335 375.6 374.5C375.6 374.928 372.236 374.873 371.78 374.437C371.571 374.237 370.5 373.982 369.4 373.869C366.917 373.615 363.6 372.723 363.6 372.309C363.6 372.139 363.251 372 362.824 372C362.397 372 361.934 371.817 361.796 371.593C361.658 371.37 361.377 371.291 361.172 371.417C360.968 371.544 360.8 371.478 360.8 371.27C360.8 371.063 360.485 370.788 360.1 370.658C358.948 370.271 357.944 369.502 355.982 367.5C354.958 366.455 353.883 365.6 353.593 365.6C353.304 365.6 353.176 365.491 353.309 365.358C353.442 365.225 353.157 364.729 352.675 364.255C351.662 363.258 350.877 362.097 350.542 361.1C350.412 360.715 350.169 360.4 350 360.4C349.742 360.4 349.257 359.34 349.054 358.333C349.024 358.187 348.865 357.932 348.7 357.767C348.535 357.602 348.4 357.047 348.4 356.533C348.4 356.02 348.24 355.6 348.045 355.6C347.685 355.6 347.28 353.979 347.096 351.8C347.04 351.14 346.833 350.347 346.635 350.038C346.369 349.621 346.421 349.559 346.838 349.797C347.293 350.056 347.304 350.014 346.9 349.579C346.294 348.926 346.233 345.75 346.819 345.388C347.05 345.246 347.197 344.83 347.147 344.465C346.978 343.23 347.676 338.8 348.039 338.8C348.238 338.8 348.4 338.545 348.4 338.232C348.4 337.92 348.654 337.155 348.965 336.532C349.276 335.91 349.857 334.725 350.256 333.9C350.655 333.075 351.121 332.4 351.291 332.4C351.461 332.4 351.6 332.198 351.6 331.95C351.6 331.037 358.532 324.668 360.1 324.142C360.485 324.012 360.8 323.756 360.8 323.571C360.8 323.387 361.43 323.118 362.2 322.974C362.97 322.829 363.6 322.551 363.6 322.355C363.6 322.16 363.949 322 364.376 322C364.803 322 365.256 321.833 365.383 321.628C365.605 321.268 369.06 320.7 371.024 320.7C371.553 320.7 371.888 320.543 371.769 320.35C371.513 319.936 374.937 319.871 375.348 320.282C375.503 320.437 376.028 320.604 376.515 320.653C380.639 321.068 382 321.31 382 321.629C382 321.833 382.405 322.006 382.9 322.013C383.395 322.02 384.149 322.29 384.576 322.613C385.004 322.936 385.689 323.2 386.1 323.2C386.511 323.2 386.736 323.38 386.6 323.6C386.464 323.82 386.723 324 387.176 324C387.629 324 388 324.177 388 324.392C388 324.608 388.444 324.896 388.986 325.032C389.528 325.168 390.083 325.577 390.22 325.94C390.357 326.303 391.518 327.5 392.8 328.6C394.082 329.7 395.262 330.96 395.423 331.4C395.583 331.84 396.042 332.43 396.441 332.711C396.841 332.993 397.285 333.848 397.429 334.611C397.572 335.375 397.849 336 398.045 336C398.24 336 398.4 336.27 398.4 336.6C398.4 336.93 398.58 337.2 398.8 337.2C399.02 337.2 399.2 337.65 399.2 338.2C399.2 338.75 399.38 339.2 399.6 339.2C399.862 339.2 400 331.609 400 317.227V295.254L398.9 294.477C398.295 294.049 397.215 293.573 396.5 293.418C395.785 293.263 395.2 292.971 395.2 292.768C395.2 292.566 394.671 292.4 394.024 292.4C393.377 292.4 392.742 292.23 392.614 292.023C392.486 291.816 391.577 291.526 390.595 291.378C389.612 291.231 388.888 290.981 388.986 290.822C389.085 290.663 388.948 290.519 388.682 290.502C385.12 290.269 382.067 289.814 382.236 289.542C382.459 289.181 373.884 289.05 373.525 289.408Z" fill="#FCEDE5"/>
<path fill-rule="evenodd" clip-rule="evenodd" d="M315.79 30.7998C315.79 47.8498 315.84 54.8248 315.9 46.2998C315.96 37.7748 315.96 23.8248 315.9 15.2998C315.84 6.77481 315.79 13.7498 315.79 30.7998ZM399.2 9.1528C399.2 9.3478 398.885 9.6118 398.5 9.7418C397.25 10.1608 395.171 11.7928 391.93 14.8998C391.529 15.2848 391.119 15.5998 391.019 15.5998C390.606 15.5998 388 18.5638 388 19.0338C388 19.3158 387.649 19.6568 387.22 19.7938C386.792 19.9298 386.33 20.3918 386.194 20.8198C386.057 21.2488 385.794 21.5998 385.609 21.5998C385.423 21.5998 384.508 22.8148 383.575 24.2998C382.642 25.7848 381.768 27.0898 381.633 27.1998C381.498 27.3098 381.031 28.1628 380.594 29.0948C380.157 30.0278 379.679 30.7928 379.532 30.7948C379.384 30.7978 379.145 31.3398 379 31.9998C378.855 32.6598 378.571 33.1998 378.368 33.1998C378.166 33.1998 377.994 33.6048 377.987 34.0998C377.98 34.5948 377.71 35.3488 377.387 35.7758C377.064 36.2038 376.8 36.9688 376.8 37.4758C376.8 37.9838 376.62 38.3998 376.4 38.3998C376.18 38.3998 376 38.8388 376 39.3758C376 39.9128 375.83 40.4578 375.623 40.5858C375.416 40.7138 375.137 41.6688 375.003 42.7088C374.869 43.7488 374.588 44.9128 374.38 45.2948C374.171 45.6768 374 48.7818 374 52.1948V58.3998H387H400V33.5998C400 17.3328 399.862 8.7998 399.6 8.7998C399.38 8.7998 399.2 8.9588 399.2 9.1528ZM373.746 119.4C373.747 121.6 373.814 122.449 373.895 121.287C373.976 120.124 373.976 118.324 373.893 117.287C373.811 116.249 373.745 117.2 373.746 119.4ZM26.1914 198.6C26.1914 216.86 26.2404 224.388 26.3004 215.33C26.3604 206.271 26.3604 191.331 26.3004 182.13C26.2404 172.928 26.1914 180.34 26.1914 198.6ZM199.737 168.6C199.739 170.36 199.809 171.03 199.893 170.089C199.978 169.149 199.977 167.709 199.891 166.889C199.805 166.07 199.736 166.84 199.737 168.6ZM84.1694 174.4C84.1694 178.91 84.2274 180.755 84.2984 178.5C84.3704 176.245 84.3704 172.555 84.2984 170.3C84.2274 168.045 84.1694 169.89 84.1694 174.4ZM257.761 173.6C257.761 177.01 257.822 178.405 257.897 176.7C257.972 174.995 257.972 172.205 257.897 170.5C257.822 168.795 257.761 170.19 257.761 173.6ZM199.731 179C199.733 180.54 199.805 181.121 199.892 180.291C199.979 179.461 199.977 178.201 199.889 177.491C199.8 176.781 199.729 177.46 199.731 179ZM143.1 231.482C143.595 231.578 144.405 231.578 144.9 231.482C145.395 231.387 144.99 231.309 144 231.309C143.01 231.309 142.605 231.387 143.1 231.482ZM146.7 231.482C147.195 231.578 148.005 231.578 148.5 231.482C148.995 231.387 148.59 231.309 147.6 231.309C146.61 231.309 146.205 231.387 146.7 231.482ZM142.167 291C142.167 295.18 142.226 296.836 142.298 294.679C142.371 292.523 142.37 289.103 142.298 287.079C142.225 285.056 142.166 286.82 142.167 291ZM200.131 295C200.133 296.54 200.205 297.121 200.292 296.291C200.379 295.461 200.377 294.201 200.289 293.491C200.2 292.781 200.129 293.46 200.131 295Z" fill="#FCC1A4"/>
<path fill-rule="evenodd" clip-rule="evenodd" d="M74.0001 0.283C73.0101 0.361 71.9301 0.537 71.6001 0.673C71.2701 0.809 70.6401 0.98 70.2001 1.053C67.7431 1.462 66.8001 1.723 66.8001 1.994C66.8001 2.278 63.7601 2.988 63.1001 2.859C62.9351 2.826 62.8001 2.98 62.8001 3.2C62.8001 3.42 62.3391 3.6 61.7761 3.6C61.2131 3.6 60.8581 3.771 60.9881 3.98C61.1171 4.189 60.5871 4.479 59.8111 4.624C59.0351 4.77 58.4001 5.049 58.4001 5.245C58.4001 5.44 58.0401 5.6 57.6001 5.6C57.1601 5.6 56.8001 5.76 56.8001 5.957C56.8001 6.153 56.3161 6.435 55.7241 6.583C55.1321 6.732 54.3671 7.176 54.0241 7.57C53.6811 7.963 52.9951 8.413 52.5001 8.57C52.0051 8.726 51.6001 9.022 51.6001 9.227C51.6001 9.432 51.4221 9.6 51.2051 9.6C50.9871 9.6 50.4921 9.871 50.1051 10.203C49.7171 10.535 49.2401 10.85 49.0451 10.903C48.8501 10.956 48.0081 11.63 47.1741 12.4C44.9751 14.431 44.4851 14.8 43.9931 14.8C43.7511 14.8 43.6351 14.935 43.7341 15.1C43.8341 15.265 43.6651 15.632 43.3581 15.916C43.0511 16.199 42.8001 16.299 42.8001 16.138C42.8001 15.977 42.3781 16.417 41.8611 17.117C41.3451 17.817 40.8051 18.272 40.6611 18.128C40.5181 17.984 40.4001 18.195 40.4001 18.595C40.4001 18.996 39.6801 20.009 38.8001 20.846C37.9201 21.683 37.2001 22.555 37.2001 22.784C37.2001 23.013 37.0321 23.2 36.8271 23.2C36.6221 23.2 36.3261 23.605 36.1701 24.1C36.0131 24.595 35.5391 25.301 35.1171 25.67C34.6941 26.038 34.3611 26.488 34.3771 26.67C34.3931 26.851 34.1761 27.27 33.8951 27.6C33.6131 27.93 33.0601 28.92 32.6661 29.8C32.2711 30.68 31.6221 32.03 31.2241 32.8C30.8261 33.57 30.5831 34.425 30.6831 34.7C30.7841 34.975 30.6721 35.2 30.4331 35.2C30.1951 35.2 30.0001 35.47 30.0001 35.8C30.0001 36.13 29.8431 36.4 29.6521 36.4C29.4601 36.4 29.1841 37.3 29.0381 38.4C28.8921 39.5 28.5991 40.4 28.3861 40.4C28.1741 40.4 28.0001 40.85 28.0001 41.4C28.0001 41.95 27.8351 42.4 27.6341 42.4C27.4331 42.4 27.1551 43.795 27.0161 45.5C26.8771 47.205 26.6021 48.896 26.4051 49.257C25.9591 50.074 25.9261 66.02 26.3691 66.587C26.5461 66.814 26.8101 68.35 26.9561 70C27.1021 71.65 27.3971 73.06 27.6111 73.133C27.8251 73.207 28.0001 73.702 28.0001 74.233C28.0001 74.765 28.1631 75.2 28.3621 75.2C28.5621 75.2 28.8491 76.1 29.0001 77.2C29.1511 78.3 29.4081 79.2 29.5711 79.2C29.7331 79.2 30.2071 80.266 30.6231 81.568C31.0391 82.871 31.5191 83.85 31.6901 83.745C31.8601 83.639 32.0001 83.913 32.0001 84.353C32.0001 84.793 32.1831 85.266 32.4071 85.404C32.6301 85.542 32.7091 85.823 32.5831 86.028C32.4561 86.232 32.5431 86.4 32.7761 86.4C33.0091 86.4 33.2001 86.599 33.2001 86.842C33.2001 87.224 33.7341 87.988 35.6061 90.283C35.8231 90.549 36.0001 90.941 36.0001 91.155C36.0001 91.368 36.2571 91.8 36.5711 92.114C36.8851 92.427 37.5141 93.295 37.9691 94.042C38.4241 94.789 38.7981 95.237 38.7991 95.039C38.7991 94.84 39.1601 95.093 39.6001 95.6C40.0401 96.107 40.4001 96.675 40.4001 96.861C40.4001 97.333 41.9141 98.8 42.4001 98.8C42.6201 98.8 42.8001 98.935 42.8001 99.1C42.8011 99.611 44.6681 101.6 45.1471 101.6C45.3961 101.6 45.6001 101.768 45.6001 101.973C45.6001 102.178 45.9511 102.457 46.3801 102.594C46.8081 102.73 47.2711 103.194 47.4081 103.626C47.5451 104.058 47.8021 104.323 47.9781 104.214C48.1541 104.105 48.8391 104.533 49.5011 105.166C50.1631 105.798 51.0861 106.437 51.5521 106.585C52.0191 106.733 52.4001 107.022 52.4001 107.227C52.4001 107.432 52.6701 107.6 53.0001 107.6C53.3301 107.6 53.6001 107.81 53.6001 108.067C53.6001 108.323 53.7101 108.424 53.8441 108.289C53.9781 108.155 54.7851 108.485 55.6361 109.023C56.4871 109.56 57.4581 110 57.7921 110C58.1261 110 58.4001 110.136 58.4001 110.302C58.4001 110.652 60.1021 111.435 61.7001 111.821C62.3051 111.967 62.8001 112.247 62.8001 112.443C62.8001 112.64 63.2501 112.8 63.8001 112.8C64.3501 112.8 64.8001 112.963 64.8001 113.162C64.8001 113.362 65.7001 113.649 66.8001 113.8C67.9001 113.951 68.8001 114.238 68.8001 114.438C68.8001 114.637 69.4151 114.8 70.1671 114.8C70.9181 114.8 71.6081 115.025 71.7001 115.3C71.8911 115.875 125.025 116.281 135.9 115.791L142 115.516L141.989 112.258C141.983 110.466 141.793 107.29 141.567 105.2C141.34 103.11 141.135 101.175 141.111 100.9C141.086 100.625 140.937 100.4 140.779 100.4C140.62 100.4 140.388 99.905 140.263 99.3C139.727 96.706 138.996 94.4 138.709 94.4C138.539 94.4 138.4 94.023 138.4 93.562C138.4 92.785 137.322 90.458 136.75 90C136.613 89.89 136.374 89.215 136.218 88.5C136.063 87.785 135.771 87.2 135.568 87.2C135.366 87.2 135.2 86.93 135.2 86.6C135.2 86.27 135.032 86 134.827 86C134.622 86 134.326 85.595 134.17 85.1C134.013 84.605 133.551 83.909 133.143 83.553C132.734 83.197 132.4 82.71 132.4 82.471C132.4 82.232 131.95 81.586 131.4 81.036C130.85 80.486 130.4 79.873 130.4 79.674C130.4 79.475 129.961 78.982 129.424 78.579C128.887 78.176 128.538 77.701 128.648 77.523C128.757 77.345 128.657 77.2 128.424 77.2C128.191 77.2 128 77.008 128 76.774C128 76.219 123.781 72 123.226 72C122.992 72 122.8 71.809 122.8 71.576C122.8 71.343 122.655 71.243 122.477 71.352C122.299 71.462 121.824 71.113 121.421 70.576C121.018 70.039 120.525 69.6 120.326 69.6C120.127 69.6 119.514 69.15 118.964 68.6C118.414 68.05 117.768 67.6 117.529 67.6C117.29 67.6 116.803 67.266 116.447 66.857C116.091 66.449 115.395 65.987 114.9 65.83C114.405 65.674 114 65.378 114 65.173C114 64.968 113.73 64.8 113.4 64.8C113.07 64.8 112.8 64.628 112.8 64.418C112.8 64.208 112.17 63.918 111.4 63.774C110.63 63.629 110 63.351 110 63.155C110 62.96 109.73 62.8 109.4 62.8C109.07 62.8 108.8 62.62 108.8 62.4C108.8 62.18 108.422 62 107.96 62C107.499 62 106.554 61.748 105.86 61.441C105.167 61.133 103.61 60.571 102.4 60.192C101.19 59.813 99.8681 59.333 99.4631 59.125C99.0581 58.917 97.4831 58.643 95.9631 58.516C92.8991 58.259 92.1891 57.6 94.9761 57.6C95.9531 57.6 96.8561 57.433 96.9831 57.228C97.1091 57.023 98.2001 56.733 99.4061 56.582C100.613 56.431 101.6 56.149 101.6 55.954C101.6 55.759 101.949 55.6 102.376 55.6C102.803 55.6 103.251 55.441 103.371 55.246C103.492 55.052 104.402 54.771 105.395 54.622C106.388 54.473 107.2 54.182 107.2 53.975C107.2 53.769 107.47 53.6 107.8 53.6C108.13 53.6 108.4 53.436 108.4 53.235C108.4 53.034 109.12 52.749 110 52.6C110.88 52.451 111.6 52.166 111.6 51.965C111.6 51.764 111.87 51.6 112.2 51.6C112.53 51.6 112.8 51.42 112.8 51.2C112.8 50.98 113.042 50.8 113.338 50.8C113.634 50.8 114.387 50.36 115.013 49.823C115.638 49.285 116.296 48.936 116.475 49.046C116.654 49.157 116.8 49.09 116.8 48.897C116.8 48.705 117.514 48.146 118.387 47.656C119.259 47.165 120.692 46.052 121.571 45.182C122.45 44.312 123.311 43.596 123.484 43.591C123.658 43.586 124.7 42.593 125.8 41.383C126.9 40.174 128.565 38.367 129.5 37.369C130.435 36.37 131.2 35.294 131.2 34.976C131.2 34.659 131.377 34.4 131.592 34.4C131.808 34.4 132.096 33.956 132.232 33.414C132.368 32.872 132.818 32.321 133.232 32.19C133.645 32.059 133.952 31.827 133.913 31.676C133.768 31.114 134.469 29.595 134.783 29.79C134.962 29.9 135.24 29.588 135.401 29.096C135.561 28.603 135.723 28.11 135.761 28C135.979 27.369 137.393 24.568 137.579 24.4C137.701 24.29 137.81 24.02 137.822 23.8C137.876 22.834 138.518 21.2 138.843 21.2C139.04 21.2 139.206 20.795 139.214 20.3C139.222 19.805 139.486 18.95 139.8 18.4C140.114 17.85 140.378 16.894 140.386 16.276C140.394 15.658 140.564 15.254 140.764 15.378C140.964 15.501 141.255 14.072 141.411 12.201C141.567 10.331 141.853 8.8 142.047 8.8C142.241 8.8 142.4 6.82 142.4 4.4V0L109.1 0.07C90.7851 0.108 74.9901 0.204 74.0001 0.283ZM247.2 0.45C243.126 1.076 241.271 1.512 240.6 2.003C240.38 2.164 239.552 2.412 238.761 2.555C237.97 2.697 236.395 3.26 235.263 3.807C234.13 4.353 232.933 4.8 232.602 4.8C232.271 4.8 232 4.959 232 5.154C232 5.51 229.922 6.624 228.8 6.869C228.47 6.941 227.93 7.282 227.6 7.628C227.27 7.973 226.73 8.377 226.4 8.525C225.534 8.915 224.361 9.697 223.461 10.486C223.031 10.864 222.498 11.061 222.278 10.924C222.051 10.784 222 10.877 222.162 11.138C222.319 11.392 222.258 11.6 222.027 11.6C221.796 11.6 221.091 12.14 220.46 12.8C219.829 13.46 219.183 14 219.025 14C218.648 14 214 18.648 214 19.025C214 19.183 213.46 19.829 212.8 20.46C212.14 21.091 211.6 21.796 211.6 22.027C211.6 22.258 211.392 22.319 211.138 22.162C210.877 22 210.784 22.051 210.924 22.278C211.061 22.498 210.864 23.031 210.486 23.461C209.697 24.361 208.915 25.534 208.525 26.4C208.377 26.73 207.973 27.27 207.628 27.6C207.282 27.93 206.941 28.47 206.869 28.8C206.625 29.915 205.511 32 205.159 32C204.967 32 204.694 32.72 204.554 33.6C204.413 34.48 204.17 35.2 204.014 35.2C203.858 35.2 203.405 36.235 203.009 37.5C202.319 39.702 201.9 40.849 201.15 42.6C200.961 43.04 200.802 43.76 200.797 44.2C200.791 44.64 200.625 46.62 200.428 48.6C199.949 53.412 199.947 65.116 200.425 68.6C200.636 70.14 200.818 71.711 200.83 72.092C200.841 72.473 201.019 72.888 201.225 73.016C201.431 73.143 201.6 73.687 201.6 74.224C201.6 74.761 201.763 75.2 201.962 75.2C202.162 75.2 202.449 76.1 202.6 77.2C202.751 78.3 203.038 79.2 203.238 79.2C203.437 79.2 203.6 79.635 203.6 80.167C203.6 80.698 203.735 81.193 203.9 81.267C204.234 81.415 206.987 86.81 206.995 87.332C206.998 87.515 207.289 87.876 207.642 88.134C207.995 88.392 208.412 89.007 208.569 89.502C208.726 89.996 209.022 90.4 209.227 90.4C209.432 90.4 209.6 90.67 209.6 91C209.6 91.33 209.768 91.6 209.973 91.6C210.178 91.6 210.468 91.983 210.616 92.45C210.764 92.918 211.678 94.116 212.647 95.113C213.616 96.109 214.341 96.992 214.259 97.074C214.046 97.287 218.415 101.6 218.844 101.6C219.04 101.6 219.876 102.277 220.7 103.104C221.525 103.932 222.689 104.859 223.286 105.165C223.884 105.47 224.261 105.901 224.125 106.122C223.988 106.343 224.057 106.412 224.278 106.276C224.498 106.139 225.059 106.381 225.523 106.814C225.987 107.246 226.554 107.6 226.783 107.6C227.012 107.6 227.2 107.78 227.2 108C227.2 108.22 227.457 108.4 227.771 108.4C228.086 108.4 228.619 108.676 228.957 109.014C229.295 109.352 229.669 109.619 229.788 109.607C230.429 109.543 232 110.137 232 110.443C232 110.64 232.27 110.8 232.6 110.8C232.93 110.8 233.2 110.98 233.2 111.2C233.2 111.42 233.605 111.601 234.1 111.602C234.595 111.604 235.516 111.874 236.146 112.202C236.776 112.531 237.541 112.8 237.846 112.8C238.151 112.8 238.4 112.963 238.4 113.162C238.4 113.362 239.3 113.649 240.4 113.8C241.499 113.951 242.5 114.238 242.623 114.437C242.746 114.637 243.377 114.8 244.024 114.8C244.671 114.8 245.2 114.95 245.2 115.133C245.2 115.685 245.213 115.685 274.711 115.866C292.578 115.975 303.135 116.182 302.988 116.42C302.859 116.629 302.324 116.8 301.8 116.8C301.276 116.8 300.749 116.959 300.629 117.154C300.508 117.348 299.602 117.629 298.614 117.777C297.627 117.925 296.714 118.216 296.586 118.423C296.458 118.63 295.913 118.8 295.376 118.8C294.839 118.8 294.4 118.964 294.4 119.165C294.4 119.366 293.68 119.651 292.8 119.8C291.92 119.949 291.2 120.234 291.2 120.435C291.2 120.636 291.002 120.8 290.76 120.8C290.225 120.8 287.478 122.054 287.2 122.425C287.09 122.572 286.595 122.819 286.1 122.973C285.605 123.128 285.2 123.422 285.2 123.627C285.2 123.832 284.93 124 284.6 124C284.27 124 284 124.168 284 124.373C284 124.578 283.61 124.87 283.134 125.021C282.658 125.172 281.839 125.724 281.316 126.248C280.792 126.772 280.114 127.2 279.809 127.2C279.504 127.2 279.14 127.56 279 128C278.86 128.44 278.617 128.8 278.46 128.8C277.782 128.8 272 133.962 272 134.567C272 134.729 271.46 135.402 270.8 136.062C270.14 136.722 269.6 137.383 269.6 137.531C269.599 137.679 269.149 138.323 268.6 138.962C268.05 139.601 267.6 140.347 267.6 140.619C267.6 140.892 267.349 141.211 267.042 141.328C266.736 141.446 266.074 142.365 265.572 143.371C265.069 144.377 264.524 145.2 264.361 145.2C264.197 145.2 263.945 145.74 263.8 146.4C263.655 147.06 263.371 147.6 263.168 147.6C262.966 147.6 262.8 147.96 262.8 148.4C262.8 148.84 262.62 149.2 262.4 149.2C262.18 149.2 262.024 149.335 262.054 149.5C262.172 150.166 261.477 152.4 261.15 152.4C260.957 152.4 260.8 152.691 260.8 153.046C260.8 153.752 259.696 157.378 259.14 158.5C257.68 161.446 257.714 188.226 259.18 189.2C259.345 189.31 259.587 189.85 259.717 190.4C260.229 192.57 260.999 195.01 261.231 195.2C261.366 195.31 261.607 195.929 261.765 196.576C261.924 197.222 262.389 198.223 262.8 198.8C263.211 199.377 263.668 200.333 263.817 200.924C263.965 201.516 264.247 202 264.443 202C264.64 202 264.8 202.36 264.8 202.8C264.8 203.24 264.968 203.6 265.173 203.6C265.378 203.6 265.674 204.005 265.83 204.5C265.987 204.995 266.423 205.67 266.8 206C267.177 206.33 267.613 207.005 267.77 207.5C267.926 207.995 268.222 208.4 268.427 208.4C268.632 208.4 268.8 208.681 268.8 209.024C268.8 209.367 268.98 209.536 269.2 209.4C269.42 209.264 269.6 209.337 269.6 209.563C269.6 209.788 270.14 210.525 270.8 211.2C271.46 211.875 272 212.597 272 212.803C272 213.19 275.458 216.8 275.827 216.8C276.086 216.8 276.83 217.415 278.735 219.2C279.556 219.97 280.351 220.6 280.501 220.6C280.651 220.6 281.142 220.915 281.592 221.3C282.041 221.685 282.587 222 282.805 222C283.022 222 283.2 222.168 283.2 222.373C283.2 222.578 283.605 222.874 284.1 223.03C284.595 223.187 285.301 223.661 285.67 224.083C286.038 224.506 286.398 224.846 286.47 224.838C287.003 224.776 288.4 225.362 288.4 225.647C288.4 225.841 288.76 226 289.2 226C289.64 226 290 226.172 290 226.382C290 226.592 290.675 226.888 291.5 227.04C292.325 227.191 293.09 227.424 293.2 227.558C293.678 228.137 295.287 228.804 296.783 229.044C297.672 229.186 298.4 229.442 298.4 229.614C298.4 229.785 299.345 230.052 300.5 230.207C301.655 230.363 302.813 230.662 303.073 230.872C303.835 231.486 324.516 232.253 324.709 231.674C324.799 231.404 325.628 231.2 326.633 231.2C327.605 231.2 328.4 231.043 328.4 230.852C328.4 230.66 329.48 230.381 330.8 230.232C332.12 230.082 333.2 229.812 333.2 229.631C333.2 229.45 333.896 229.191 334.747 229.055C335.598 228.919 336.8 228.545 337.418 228.224C338.037 227.903 338.691 227.732 338.871 227.844C339.052 227.956 339.2 227.871 339.2 227.655C339.2 227.44 339.74 227.145 340.4 227C341.06 226.855 341.6 226.571 341.6 226.368C341.6 226.166 341.96 226 342.4 226C342.84 226 343.2 225.84 343.2 225.643C343.2 225.447 343.684 225.165 344.276 225.017C344.868 224.868 345.633 224.424 345.976 224.03C346.319 223.637 347.005 223.187 347.5 223.03C347.995 222.874 348.4 222.578 348.4 222.373C348.4 222.168 348.67 222 349 222C349.33 222 349.6 221.832 349.6 221.627C349.6 221.422 349.998 221.128 350.485 220.973C350.971 220.819 352.042 220.042 352.864 219.246C354.725 217.446 355.5 216.8 355.799 216.8C356.123 216.8 359.189 213.466 359.195 213.107C359.198 212.946 359.83 212.166 360.6 211.373C361.37 210.58 362 209.756 362 209.542C362 209.328 362.18 209.264 362.4 209.4C362.62 209.536 362.8 209.277 362.8 208.824C362.8 208.371 362.986 208 363.213 208C363.439 208 363.742 207.685 363.885 207.3C364.028 206.915 364.446 206.33 364.815 206C365.184 205.67 365.613 204.995 365.77 204.5C365.926 204.005 366.222 203.6 366.427 203.6C366.632 203.6 366.8 203.24 366.8 202.8C366.8 202.36 366.966 202 367.168 202C367.371 202 367.655 201.46 367.8 200.8C367.945 200.14 368.19 199.6 368.344 199.6C368.744 199.6 369.617 197.151 369.364 196.741C369.248 196.554 369.343 196.4 369.576 196.4C369.809 196.4 370 196.13 370 195.8C370 195.47 370.163 195.2 370.362 195.2C370.562 195.2 370.849 194.3 371 193.2C371.151 192.1 371.438 191.2 371.638 191.2C371.837 191.2 372 190.75 372 190.2C372 189.65 372.169 189.2 372.376 189.2C372.583 189.2 372.822 188.525 372.909 187.7C372.995 186.875 373.096 196.314 373.133 208.676C373.176 223.156 373.342 231.241 373.6 231.4C373.82 231.536 374 231.911 374 232.234C374 232.764 399.257 258.4 399.779 258.4C400.554 258.4 399.976 179.119 399.2 178.916C398.76 178.801 398.4 178.548 398.4 178.353C398.4 178.159 397.95 178 397.4 178C396.85 178 396.4 177.822 396.4 177.605C396.4 177.387 395.676 177.094 394.791 176.952C393.906 176.811 393.086 176.539 392.968 176.347C392.849 176.156 392.403 176 391.976 176C391.549 176 391.2 175.838 391.2 175.639C391.2 175.441 390.12 175.153 388.799 175C387.479 174.847 386.298 174.559 386.176 174.361C386.053 174.162 383.184 174 379.8 174C376.13 174 373.547 173.839 373.4 173.6C373.24 173.341 365.24 173.2 350.71 173.2C330.99 173.2 325.389 173.073 329.921 172.727C330.624 172.674 331.2 172.488 331.2 172.315C331.2 172.142 331.65 172 332.2 172C332.75 172 333.2 171.837 333.2 171.638C333.2 171.438 334.1 171.151 335.2 171C336.3 170.849 337.2 170.562 337.2 170.362C337.2 170.163 337.545 170 337.968 170C338.701 170 341.179 168.874 341.6 168.35C341.71 168.213 342.385 167.974 343.1 167.818C343.815 167.663 344.4 167.399 344.4 167.231C344.4 167.063 345.075 166.583 345.9 166.163C346.725 165.743 347.691 165.085 348.047 164.7C348.403 164.315 348.859 164 349.06 164C349.504 164 351.248 162.662 353.101 160.9C353.853 160.185 354.645 159.6 354.86 159.6C355.389 159.6 359.6 155.362 359.6 154.83C359.6 154.597 360.099 153.91 360.71 153.303C361.989 152.032 364 149.385 364 148.974C364 148.82 364.315 148.403 364.7 148.047C365.085 147.691 365.743 146.725 366.163 145.9C366.583 145.075 367.069 144.4 367.245 144.4C367.42 144.4 367.682 143.77 367.826 143C367.971 142.23 368.21 141.6 368.357 141.6C368.747 141.6 369.612 139.144 369.364 138.741C369.248 138.554 369.343 138.4 369.576 138.4C369.809 138.4 370 138.13 370 137.8C370 137.47 370.163 137.2 370.362 137.2C370.562 137.2 370.849 136.3 371 135.2C371.151 134.1 371.438 133.2 371.638 133.2C371.837 133.2 372 132.765 372 132.233C372 131.702 372.164 131.207 372.364 131.133C372.812 130.969 373.6 123.359 373.6 119.192V116.123L368.5 115.863C365.695 115.72 352.765 115.603 339.766 115.602L316.132 115.6L315.866 78.334C315.72 57.837 315.6 31.827 315.6 20.534V0L282.5 0.056C264.295 0.087 248.41 0.265 247.2 0.45ZM260.725 3.743C262.338 5.458 265.334 8.461 266.642 9.675C267.279 10.266 268.011 10.986 268.27 11.275C268.528 11.564 269.378 12.385 270.159 13.1C270.94 13.815 271.523 14.4 271.455 14.4C271.388 14.4 272.846 15.885 274.696 17.7C278.785 21.712 278.288 21.215 282.3 25.304C284.115 27.154 285.6 28.612 285.6 28.545C285.6 28.477 286.185 29.06 286.9 29.841C287.615 30.622 288.436 31.472 288.725 31.73C289.014 31.989 289.734 32.723 290.325 33.363C292.403 35.61 296.586 39.6 296.865 39.6C297.019 39.6 297.257 39.951 297.394 40.38C297.53 40.808 297.983 41.267 298.4 41.4C298.817 41.533 299.267 41.983 299.4 42.4C299.533 42.817 300.005 43.275 300.451 43.416C300.896 43.557 301.186 43.748 301.094 43.839C300.861 44.073 305.74 49.034 306.071 48.899C306.22 48.838 306.455 49.142 306.592 49.574C306.729 50.006 307.183 50.467 307.6 50.6C308.017 50.733 308.467 51.183 308.6 51.6C308.733 52.017 309.192 52.47 309.62 52.606C310.049 52.743 310.4 52.982 310.4 53.139C310.4 53.295 311.396 54.443 312.613 55.69L314.826 57.957L286.802 85.978C271.388 101.39 258.693 114 258.589 114C258.485 114 258.4 88.703 258.4 57.784C258.4 -4.077 258.18 1.037 260.725 3.743ZM84.0001 260.5C84.0681 361.596 83.9741 392.8 83.6001 392.8C83.3801 392.8 83.2001 392.271 83.2001 391.624C83.2001 390.977 83.0371 390.346 82.8371 390.223C82.6381 390.1 82.3511 389.099 82.2001 388C82.0491 386.9 81.7621 386 81.5621 386C81.3631 386 81.2001 385.55 81.2001 385C81.2001 384.45 81.0201 384 80.8001 384C80.5801 384 80.4001 383.584 80.4001 383.076C80.4001 382.569 80.1361 381.804 79.8131 381.376C79.4901 380.949 79.2201 380.285 79.2131 379.9C79.2061 379.515 79.0201 379.2 78.8001 379.2C78.5801 379.2 78.4191 379.065 78.4431 378.9C78.5301 378.296 77.8971 376.8 77.5531 376.8C77.3591 376.8 77.2001 376.434 77.2001 375.987C77.2001 375.541 76.9301 375.071 76.6001 374.945C76.2701 374.818 76.0001 374.464 76.0001 374.157C76.0001 373.851 75.6401 373.195 75.2001 372.7C73.4901 370.776 73.2001 370.387 73.2001 370.015C73.2001 369.804 72.4951 368.933 71.6331 368.08C70.7711 367.226 69.6921 365.915 69.2351 365.164C68.7771 364.414 68.4021 363.917 68.4011 364.06C68.4011 364.203 67.7831 363.753 67.0301 363.06C62.8301 359.198 61.8841 358.4 61.5081 358.4C61.2801 358.4 60.8001 358.085 60.4411 357.7C59.6711 356.874 58.4661 356.067 57.5281 355.749C57.1581 355.624 56.7591 355.269 56.6401 354.961C56.5221 354.652 56.0591 354.4 55.6131 354.4C55.1661 354.4 54.8001 354.22 54.8001 354C54.8001 353.78 54.5301 353.6 54.2001 353.6C53.8701 353.6 53.6001 353.44 53.6001 353.245C53.6001 353.049 52.9701 352.771 52.2001 352.626C51.4301 352.482 50.8001 352.192 50.8001 351.982C50.8001 351.772 50.4511 351.6 50.0241 351.6C49.5971 351.6 49.1341 351.417 48.9961 351.193C48.8581 350.97 48.5901 350.883 48.4001 351C48.2101 351.117 47.9421 351.03 47.8041 350.807C47.6661 350.583 47.1131 350.4 46.5761 350.4C46.0391 350.4 45.6001 350.237 45.6001 350.038C45.6001 349.838 44.7001 349.551 43.6001 349.4C42.5001 349.249 41.6001 348.962 41.6001 348.762C41.6001 348.563 41.0601 348.4 40.4001 348.4C39.7401 348.4 39.2001 348.254 39.2001 348.075C39.2001 347.566 36.1241 347.405 26.4001 347.404C16.6931 347.402 13.6001 347.564 13.6001 348.075C13.6001 348.254 12.9591 348.4 12.1761 348.4C11.3931 348.4 10.8511 348.56 10.9721 348.754C11.0921 348.949 10.2031 349.232 8.99514 349.383C7.78814 349.534 6.80014 349.825 6.80014 350.029C6.80014 350.233 6.35014 350.4 5.80014 350.4C5.25014 350.4 4.80014 350.599 4.80014 350.843C4.80014 351.086 4.54114 351.186 4.22614 351.065C3.91014 350.944 3.23414 351.173 2.72414 351.574C2.21414 351.975 1.43714 352.373 0.998141 352.457C0.213141 352.608 0.198141 352.988 0.0971406 376.305L-0.00585938 400H68.5971C106.329 400 137.2 399.902 137.2 399.783C137.2 399.542 136.47 398.619 135.696 397.881C132.989 395.3 132 394.256 132 393.98C132 393.801 131.649 393.543 131.22 393.406C130.792 393.27 130.333 392.817 130.2 392.4C130.067 391.983 129.606 391.529 129.174 391.392C128.742 391.255 128.484 390.988 128.6 390.8C128.716 390.612 128.458 390.345 128.026 390.208C127.594 390.071 127.13 389.608 126.994 389.18C126.857 388.751 126.599 388.4 126.42 388.4C126.144 388.4 125.1 387.411 122.519 384.704C122.255 384.427 121.805 383.987 121.519 383.727C121.234 383.467 120.055 382.297 118.9 381.127C117.745 379.957 116.575 378.78 116.3 378.511C116.025 378.242 115.598 377.814 115.352 377.559C115.105 377.305 114.16 376.379 113.252 375.501C112.343 374.624 111.6 373.759 111.6 373.58C111.6 373.401 111.249 373.143 110.82 373.006C110.392 372.87 109.929 372.406 109.792 371.974C109.655 371.542 109.388 371.284 109.2 371.4C109.012 371.516 108.745 371.258 108.608 370.826C108.471 370.394 108.017 369.933 107.6 369.8C107.183 369.667 106.73 369.208 106.594 368.78C106.457 368.351 106.199 368 106.02 368C105.595 368 102.4 364.805 102.4 364.38C102.4 364.201 102.049 363.943 101.62 363.806C101.192 363.67 100.733 363.217 100.6 362.8C100.467 362.383 100.006 361.929 99.5741 361.792C99.1421 361.655 98.8841 361.388 99.0001 361.2C99.1161 361.012 98.8581 360.745 98.4261 360.608C97.9941 360.471 97.5331 360.017 97.4001 359.6C97.2671 359.183 96.8171 358.733 96.4001 358.6C95.9831 358.467 95.5331 358.017 95.4001 357.6C95.2671 357.183 94.8171 356.733 94.4001 356.6C93.9831 356.467 93.5331 356.017 93.4001 355.6C93.2671 355.183 92.8171 354.733 92.4001 354.6C91.9831 354.467 91.5331 354.017 91.4001 353.6C91.2671 353.183 90.8171 352.733 90.4001 352.6C89.9831 352.467 89.5291 352.006 89.3921 351.574C89.2551 351.142 88.9881 350.884 88.8001 351C88.6121 351.116 88.3431 350.849 88.2021 350.406C88.0611 349.963 87.7911 349.6 87.6021 349.6C87.1701 349.6 86.0001 348.451 86.0001 348.027C86.0001 347.777 92.5261 347.217 96.0921 347.16C96.4731 347.154 96.8881 346.981 97.0161 346.775C97.1431 346.569 97.7771 346.4 98.4241 346.4C99.0711 346.4 99.6001 346.237 99.6001 346.038C99.6001 345.838 100.5 345.551 101.6 345.4C102.7 345.249 103.6 344.962 103.6 344.762C103.6 344.563 104.05 344.4 104.6 344.4C105.15 344.4 105.6 344.236 105.6 344.035C105.6 343.834 106.32 343.549 107.2 343.4C108.08 343.251 108.8 342.966 108.8 342.765C108.8 342.564 109.07 342.4 109.4 342.4C109.73 342.4 110 342.243 110 342.05C110 341.858 110.543 341.591 111.208 341.458C111.872 341.326 112.76 340.898 113.181 340.508C113.602 340.119 114.814 339.35 115.874 338.8C116.933 338.25 118.07 337.511 118.4 337.157C118.73 336.804 119.396 336.389 119.88 336.237C120.363 336.084 120.867 335.617 121 335.2C121.133 334.783 121.592 334.33 122.02 334.194C122.449 334.057 122.8 333.778 122.8 333.573C122.8 333.368 122.984 333.2 123.209 333.2C123.741 333.2 128 328.941 128 328.409C128 328.184 128.191 328 128.424 328C128.657 328 128.744 327.833 128.618 327.629C128.492 327.425 128.742 327.145 129.174 327.008C129.606 326.871 130.07 326.408 130.206 325.98C130.343 325.551 130.622 325.2 130.827 325.2C131.032 325.2 131.2 324.93 131.2 324.6C131.2 324.27 131.377 324 131.592 324C131.808 324 132.098 323.55 132.236 323C132.374 322.45 132.619 322 132.78 322C132.942 322 133.413 321.37 133.828 320.6C134.243 319.83 134.721 319.2 134.891 319.2C135.061 319.2 135.2 318.93 135.2 318.6C135.2 318.27 135.38 318 135.6 318C135.82 318 135.981 317.865 135.957 317.7C135.87 317.096 136.503 315.6 136.847 315.6C137.041 315.6 137.2 315.24 137.2 314.8C137.2 314.36 137.357 314 137.549 314C137.741 314 138.013 313.28 138.154 312.4C138.294 311.52 138.546 310.8 138.714 310.8C138.982 310.8 139.423 309.44 140.272 306C140.408 305.45 140.658 304.908 140.827 304.797C142.343 303.795 142.283 274.623 140.764 274.067C140.564 273.993 140.394 273.633 140.387 273.267C140.372 272.481 139.034 268.5 138.659 268.125C138.516 267.983 138.4 267.447 138.4 266.933C138.4 266.42 138.209 266 137.976 266C137.743 266 137.664 265.82 137.8 265.6C137.936 265.38 137.857 265.2 137.624 265.2C137.391 265.2 137.2 264.84 137.2 264.4C137.2 263.96 137.04 263.6 136.845 263.6C136.649 263.6 136.371 262.97 136.226 262.2C136.082 261.43 135.792 260.8 135.582 260.8C135.372 260.8 135.2 260.53 135.2 260.2C135.2 259.87 135.032 259.6 134.827 259.6C134.622 259.6 134.326 259.195 134.17 258.7C134.013 258.205 133.577 257.53 133.2 257.2C132.823 256.87 132.387 256.195 132.23 255.7C132.074 255.205 131.778 254.8 131.573 254.8C131.368 254.8 131.2 254.611 131.2 254.381C131.2 254.151 130.385 253.136 129.389 252.125C128.393 251.115 127.66 250.207 127.759 250.108C128.014 249.853 125.223 247.2 124.699 247.2C124.461 247.2 124.378 247.089 124.514 246.952C124.818 246.649 123.821 245.6 123.229 245.6C122.993 245.6 122.08 244.88 121.2 244C120.32 243.12 119.42 242.4 119.2 242.4C118.98 242.4 118.8 242.223 118.8 242.008C118.8 241.792 118.35 241.502 117.8 241.364C117.25 241.226 116.8 240.965 116.8 240.784C116.8 240.602 116.395 240.326 115.9 240.17C115.405 240.013 114.719 239.563 114.376 239.17C114.033 238.776 113.268 238.332 112.676 238.183C112.084 238.035 111.6 237.753 111.6 237.557C111.6 237.36 111.24 237.2 110.8 237.2C110.36 237.2 110 237.022 110 236.805C110 236.587 109.28 236.294 108.4 236.154C107.52 236.013 106.8 235.741 106.8 235.549C106.8 235.357 106.53 235.2 106.2 235.2C105.87 235.2 105.6 235.037 105.6 234.838C105.6 234.638 104.7 234.351 103.6 234.2C102.5 234.049 101.6 233.762 101.6 233.562C101.6 233.363 101.15 233.2 100.6 233.2C100.05 233.2 99.6001 233.031 99.6001 232.825C99.6001 232.619 99.2851 232.45 98.9001 232.449C96.9841 232.448 93.2001 231.847 93.2001 231.544C93.2001 231.355 91.1261 231.2 88.5901 231.2H83.9801L84.0001 260.5ZM234.6 347.2L199 347.4L173.1 373.315C158.855 387.568 147.2 399.403 147.2 399.615C147.2 399.858 157.029 400 173.797 400H200.394L200.497 374.5L200.6 349L226.122 374.5L251.643 400H257.859H264.074L289.837 374.239C304.007 360.07 315.6 348.193 315.6 347.845C315.6 347.072 291.491 346.88 234.6 347.2Z" fill="#EB5D16"/>
</g>
<defs>
<clipPath id="clip0_244_80">
<rect width="400" height="400" fill="white"/>
</clipPath>
</defs>
</svg>
