<svg id="svg" xmlns="http://www.w3.org/2000/svg" xmlns:xlink="http://www.w3.org/1999/xlink" width="400" height="400" viewBox="0, 0, 400,400"><g id="svgg"><path id="path0" d="M175.050 111.261 C 166.805 114.330,163.642 127.148,168.531 137.679 C 175.288 152.236,190.458 148.412,191.710 131.835 C 192.635 119.593,183.378 108.161,175.050 111.261 M219.589 111.075 C 204.445 116.005,204.973 146.837,220.200 146.771 C 224.962 146.750,230.294 142.527,228.476 140.216 C 227.523 139.004,226.743 139.180,224.559 141.099 C 214.159 150.235,206.939 127.140,217.067 117.134 C 223.823 110.459,231.869 118.825,229.976 130.556 C 229.282 134.859,232.243 136.766,233.425 132.778 C 236.709 121.694,228.160 108.285,219.589 111.075 M180.623 115.218 C 188.113 118.844,190.577 133.936,184.761 140.561 C 178.638 147.534,169.351 138.319,170.093 126.006 C 170.600 117.597,175.393 112.686,180.623 115.218 M143.090 146.682 C 135.247 148.234,131.391 157.515,134.632 167.043 C 139.110 180.210,152.982 185.898,160.311 177.572 C 163.652 173.776,164.848 166.204,162.237 165.375 C 160.796 164.918,160.127 165.727,159.879 168.224 C 158.405 183.127,140.880 179.508,137.545 163.612 C 134.620 149.668,148.712 145.250,156.703 157.606 C 158.334 160.128,159.141 160.658,160.356 160.007 C 161.515 159.387,161.290 157.799,159.695 155.335 C 155.709 149.180,148.762 145.560,143.090 146.682 M252.262 146.686 C 238.874 149.403,231.380 169.209,240.351 178.163 C 248.644 186.439,263.347 178.344,266.155 163.957 C 268.207 153.439,261.300 144.852,252.262 146.686 M195.556 149.450 C 186.327 151.336,181.560 155.467,176.196 166.227 C 171.407 175.833,165.225 184.753,160.490 188.890 C 152.417 195.944,150.007 207.927,154.631 218.021 C 155.904 220.798,156.751 221.584,158.092 221.233 C 159.392 220.893,159.481 219.466,158.347 217.151 C 153.801 207.867,155.504 199.569,163.733 190.897 C 170.722 183.532,174.881 177.502,179.341 168.267 C 184.748 157.072,190.354 152.963,200.217 152.963 C 210.224 152.963,215.001 156.651,221.312 169.247 C 226.060 178.725,230.282 184.665,237.154 191.538 C 253.234 207.619,239.289 233.397,217.037 228.727 C 209.646 227.175,206.844 226.721,203.333 226.506 C 199.009 226.241,192.148 226.738,188.275 227.595 C 177.889 229.895,174.174 229.619,167.153 226.028 C 163.806 224.317,163.737 224.299,162.986 224.979 C 158.257 229.259,175.922 234.572,186.111 231.934 C 194.952 229.645,205.167 229.650,213.889 231.947 C 240.220 238.883,259.642 207.917,240.481 189.551 C 233.538 182.896,229.031 176.520,223.895 166.087 C 217.329 152.748,207.540 147.002,195.556 149.450 M258.070 151.075 C 268.118 156.228,260.834 176.975,248.722 177.701 C 238.947 178.287,237.040 163.462,245.749 154.580 C 249.617 150.635,254.502 149.245,258.070 151.075 M192.916 174.686 C 192.531 175.150,192.407 176.765,192.407 181.352 L 192.407 187.405 186.471 187.406 C 178.303 187.408,178.889 186.795,178.889 195.346 C 178.889 203.632,178.217 202.918,186.138 203.046 L 192.407 203.148 192.407 209.295 C 192.407 217.301,191.756 216.667,199.975 216.667 C 208.437 216.667,207.743 217.301,207.865 209.444 L 207.963 203.148 214.259 203.050 C 222.118 202.928,221.481 203.625,221.481 195.135 C 221.481 186.820,222.066 187.407,213.795 187.407 L 207.755 187.407 207.797 181.278 C 207.826 176.988,207.705 174.988,207.392 174.612 C 206.686 173.760,193.629 173.827,192.916 174.686 M204.080 183.796 C 204.087 191.838,203.719 191.481,212.013 191.481 L 217.778 191.481 217.778 195.370 L 217.778 199.259 211.667 199.259 C 203.572 199.259,204.074 198.756,204.074 206.864 L 204.074 212.988 200.093 212.883 L 196.111 212.778 196.013 206.481 C 195.892 198.657,196.507 199.259,188.633 199.259 L 182.593 199.259 182.593 195.395 L 182.593 191.530 188.903 191.413 C 196.544 191.272,195.913 191.940,195.920 183.981 L 195.926 177.778 200.000 177.778 L 204.074 177.778 204.080 183.796 M270.429 256.313 C 269.953 256.508,267.953 256.852,265.985 257.078 C 261.901 257.547,261.995 257.498,261.654 259.352 C 261.415 260.655,261.457 260.741,262.325 260.741 C 262.835 260.741,263.645 261.059,264.126 261.449 L 265.000 262.157 264.993 272.653 C 264.986 284.596,264.925 285.039,263.248 285.474 C 262.054 285.784,261.601 286.556,261.518 288.426 L 261.481 289.259 268.889 289.259 L 276.296 289.259 276.296 287.931 C 276.296 286.879,276.027 286.365,275.000 285.456 C 271.869 282.684,273.987 272.963,277.722 272.963 C 280.847 272.963,282.019 282.607,279.213 285.228 C 278.544 285.853,278.085 286.747,277.928 287.730 L 277.683 289.259 284.582 289.259 L 291.481 289.259 291.481 287.993 C 291.481 286.378,291.163 285.556,290.538 285.556 C 289.616 285.556,289.445 284.638,289.259 278.704 C 289.061 272.361,288.597 270.743,286.551 269.268 C 282.747 266.526,276.047 267.631,274.160 271.312 C 273.534 272.534,273.521 272.390,273.623 265.263 C 273.753 256.280,273.340 255.124,270.429 256.313 M140.730 257.519 C 135.391 258.725,133.148 261.489,133.148 266.860 C 133.148 272.195,134.859 274.351,141.838 277.807 C 147.791 280.754,149.056 282.460,146.893 284.622 C 143.439 288.076,138.519 285.155,138.519 279.651 C 138.519 278.392,138.084 278.288,134.747 278.745 L 133.094 278.972 132.710 282.912 C 132.268 287.455,132.006 287.035,136.111 288.384 C 146.672 291.857,155.741 287.898,155.741 279.815 C 155.741 274.654,153.893 272.493,146.372 268.864 C 139.907 265.744,138.328 263.591,140.976 261.508 C 143.818 259.273,148.471 262.172,148.510 266.204 C 148.520 267.168,150.419 267.369,152.537 266.630 L 153.704 266.224 153.704 262.751 C 153.704 259.333,153.688 259.270,152.685 258.767 C 150.008 257.424,143.949 256.791,140.730 257.519 M57.411 258.207 C 57.429 260.347,57.898 261.413,58.911 261.616 C 60.820 261.997,60.926 262.623,60.926 273.555 C 60.926 284.520,60.791 285.323,58.878 285.743 C 58.115 285.911,57.806 286.249,57.635 287.103 C 57.176 289.397,56.608 289.259,66.529 289.259 L 75.650 289.259 75.401 287.699 C 75.264 286.841,75.117 286.129,75.076 286.116 C 70.006 284.580,70.185 285.087,70.185 272.288 L 70.185 261.667 71.961 261.553 C 73.553 261.451,73.864 261.568,74.978 262.682 C 78.660 266.364,77.231 275.556,72.976 275.556 C 72.072 275.556,71.901 275.733,71.682 276.900 C 71.327 278.792,71.790 279.080,75.112 279.038 C 87.098 278.886,91.176 262.261,80.123 258.614 C 77.640 257.795,57.405 257.432,57.411 258.207 M121.667 261.193 C 120.852 261.628,119.352 262.174,118.333 262.408 L 116.481 262.831 116.373 265.490 L 116.264 268.148 114.824 268.148 C 113.305 268.148,113.271 268.190,112.776 270.648 C 112.548 271.779,112.597 271.852,113.582 271.857 C 116.384 271.870,116.294 271.667,116.313 278.099 C 116.341 288.356,119.611 291.403,127.963 288.953 C 130.243 288.285,130.456 288.057,130.181 286.587 L 129.937 285.289 127.858 285.329 C 124.987 285.386,124.827 285.004,124.820 278.073 L 124.815 272.627 126.204 272.242 C 126.968 272.030,128.056 271.855,128.623 271.854 C 129.717 271.852,129.812 271.711,130.173 269.537 L 130.404 268.148 127.609 268.148 L 124.815 268.148 124.815 264.976 C 124.815 260.299,124.362 259.755,121.667 261.193 M252.441 260.686 C 252.213 261.055,249.744 262.004,247.500 262.584 L 245.926 262.992 245.926 265.570 L 245.926 268.148 244.488 268.148 C 242.944 268.148,242.609 268.625,242.598 270.833 C 242.593 271.713,242.740 271.852,243.673 271.852 C 245.945 271.852,245.926 271.802,245.926 277.750 C 245.926 287.277,247.311 289.407,253.519 289.428 C 257.467 289.441,260.003 288.529,259.994 287.099 C 259.986 285.571,259.603 285.311,257.412 285.342 C 254.759 285.379,254.494 284.694,254.465 277.703 L 254.444 272.627 255.833 272.242 C 256.597 272.030,257.743 271.855,258.380 271.854 C 259.379 271.852,259.569 271.694,259.769 270.694 C 260.277 268.151,260.274 268.148,257.222 268.148 L 254.444 268.148 254.444 264.704 C 254.444 261.311,254.152 260.370,253.096 260.370 C 252.843 260.370,252.549 260.512,252.441 260.686 M97.037 267.900 C 86.804 270.278,85.417 285.505,95.145 288.680 C 100.715 290.498,110.370 288.866,110.370 286.107 C 110.370 283.970,109.875 283.679,107.690 284.531 C 102.913 286.393,98.695 285.003,97.598 281.204 L 97.357 280.370 103.484 280.370 L 109.611 280.370 110.176 279.278 C 113.497 272.854,105.504 265.932,97.037 267.900 M202.222 267.793 C 200.898 267.980,199.065 268.352,198.148 268.621 L 196.481 269.110 196.481 272.128 C 196.481 275.535,196.487 275.541,199.675 275.550 C 201.376 275.556,201.388 275.546,201.615 274.130 C 202.411 269.150,208.148 269.716,208.148 274.775 C 208.148 275.776,208.068 275.813,204.352 276.551 C 198.261 277.760,195.250 279.601,194.439 282.612 C 192.502 289.805,203.997 292.351,208.659 285.762 C 209.123 285.107,209.164 285.181,209.127 286.592 C 209.064 289.004,210.083 289.829,212.203 289.081 C 213.087 288.769,214.967 288.406,216.380 288.275 C 218.649 288.064,218.990 287.931,219.290 287.142 C 219.942 285.426,219.718 284.555,218.565 284.324 C 217.123 284.036,216.983 283.543,216.708 277.778 C 216.280 268.799,212.680 266.318,202.222 267.793 M228.112 267.758 C 219.964 269.252,220.013 277.279,228.190 280.601 C 231.556 281.969,232.593 282.790,232.593 284.086 C 232.593 287.243,227.435 286.014,226.815 282.710 L 226.567 281.390 224.701 281.611 C 222.313 281.894,222.320 281.884,222.160 285.253 L 222.025 288.099 224.068 288.660 C 239.318 292.843,248.695 282.089,234.815 276.334 C 231.138 274.810,229.939 273.836,230.071 272.480 C 230.297 270.138,233.738 270.628,234.859 273.162 C 235.669 274.992,235.655 274.987,237.999 274.397 L 239.660 273.978 239.552 271.377 L 239.444 268.776 238.012 268.281 C 236.203 267.657,230.353 267.348,228.112 267.758 M325.741 267.795 C 324.519 267.985,322.769 268.359,321.852 268.626 L 320.185 269.112 320.322 272.056 C 320.476 275.400,320.592 275.542,323.171 275.550 L 325.045 275.556 325.521 273.700 C 326.664 269.238,331.440 269.789,331.907 274.437 L 332.037 275.727 328.136 276.520 C 321.129 277.945,318.468 279.923,318.215 283.890 C 317.814 290.189,328.093 291.866,332.145 286.162 L 332.963 285.010 332.963 286.707 C 332.963 289.359,333.618 289.723,336.852 288.873 C 338.278 288.498,340.217 288.181,341.161 288.169 C 343.008 288.147,343.317 287.761,343.328 285.463 C 343.332 284.702,343.153 284.444,342.619 284.444 C 341.113 284.444,340.847 283.617,340.670 278.385 C 340.352 269.019,336.310 266.152,325.741 267.795 M157.544 268.611 C 157.667 269.069,157.770 269.824,157.773 270.287 C 157.776 270.833,158.091 271.248,158.666 271.467 C 160.102 272.013,160.582 273.046,163.355 281.549 L 165.991 289.630 167.394 289.630 C 169.781 289.630,171.148 289.209,171.477 288.374 C 171.646 287.944,172.728 285.598,173.879 283.160 L 175.974 278.727 176.849 281.308 C 177.330 282.728,178.325 285.203,179.060 286.809 L 180.397 289.730 182.649 289.526 C 185.490 289.268,185.111 289.845,187.563 282.037 C 190.523 272.611,190.658 272.284,191.836 271.675 C 192.510 271.326,192.945 270.739,193.099 269.970 C 193.553 267.696,193.710 267.778,188.889 267.778 L 184.444 267.778 184.444 269.107 C 184.444 270.121,184.708 270.669,185.556 271.412 C 186.906 272.597,186.932 273.304,185.772 277.222 C 184.768 280.611,185.130 280.925,182.764 274.616 C 180.180 267.723,180.217 267.778,178.178 267.778 L 176.390 267.778 174.053 273.512 C 172.767 276.666,171.626 279.157,171.516 279.047 C 170.566 278.097,169.735 271.481,170.565 271.481 C 171.196 271.481,171.852 270.054,171.852 268.680 L 171.852 267.778 164.586 267.778 L 157.321 267.778 157.544 268.611 M291.481 269.044 C 291.481 270.626,291.798 271.481,292.382 271.481 C 293.586 271.481,295.311 274.655,300.586 286.569 C 302.881 291.753,302.941 292.137,301.636 293.361 C 300.584 294.349,296.128 294.583,294.019 293.762 C 291.149 292.645,292.182 299.032,295.066 300.237 C 300.705 302.593,302.882 300.096,309.806 283.333 C 313.840 273.567,314.644 271.956,315.643 271.639 C 316.412 271.395,317.037 270.069,317.037 268.680 L 317.037 267.778 312.544 267.778 L 308.051 267.778 308.281 269.167 C 308.407 269.931,308.512 270.744,308.514 270.975 C 308.517 271.206,308.851 271.482,309.257 271.588 C 310.549 271.926,310.513 272.914,309.068 276.789 C 307.445 281.142,307.216 281.504,306.895 280.227 C 306.766 279.710,305.978 277.861,305.146 276.116 C 303.532 272.737,303.509 272.048,304.991 271.485 C 305.610 271.250,305.928 270.844,305.931 270.287 C 305.934 269.824,306.037 269.069,306.159 268.611 L 306.383 267.778 298.932 267.778 L 291.481 267.778 291.481 269.044 M101.755 271.307 C 102.632 271.922,103.328 273.919,103.331 275.833 L 103.333 277.037 100.143 277.037 L 96.953 277.037 97.216 275.283 C 97.785 271.487,99.663 269.842,101.755 271.307 M208.063 280.388 C 207.766 283.471,204.707 285.670,203.037 284.000 C 201.292 282.255,203.999 279.340,208.103 278.546 C 208.180 278.531,208.162 279.360,208.063 280.388 M331.947 280.001 C 331.677 282.764,330.288 284.444,328.275 284.444 C 325.393 284.444,325.806 281.278,328.892 279.712 C 331.009 278.637,332.070 278.738,331.947 280.001 " stroke="none" fill="#fff" fill-rule="evenodd"></path></g></svg>