<svg width="577" height="82" viewBox="0 0 577 82" fill="none" xmlns="http://www.w3.org/2000/svg">
<g clip-path="url(#clip0_242_61)">
<mask id="mask0_242_61" style="mask-type:luminance" maskUnits="userSpaceOnUse" x="0" y="0" width="577" height="82">
<path d="M576.649 0H0V81.2325H576.649V0Z" fill="white"/>
</mask>
<g mask="url(#mask0_242_61)">
<path fill-rule="evenodd" clip-rule="evenodd" d="M27.6216 0.374515C22.1429 2.41383 20.0411 10.9312 23.2898 17.929C27.7797 27.6019 37.86 25.0609 38.692 14.0457C39.3066 5.91104 33.1554 -1.6854 27.6216 0.374515ZM57.2173 0.250917C47.1542 3.52685 47.5051 24.0144 57.6233 23.9705C60.7875 23.9566 64.3306 21.1504 63.1226 19.6148C62.4893 18.8094 61.971 18.9264 60.5198 20.2015C53.6091 26.2723 48.8115 10.9259 55.5414 4.27706C60.0307 -0.158405 65.3772 5.40071 64.1193 13.1958C63.6581 16.0551 65.6257 17.3223 66.4111 14.6723C68.5933 7.30712 62.9126 -1.60301 57.2173 0.250917ZM31.3248 3.0039C36.3018 5.41333 37.9391 15.4418 34.0744 19.844C30.0058 24.4775 23.8347 18.3542 24.3277 10.1724C24.6646 4.58471 27.8495 1.32141 31.3248 3.0039ZM6.38452 23.9114C1.17293 24.9427 -1.38933 31.1098 0.764278 37.441C3.73986 46.1904 12.9576 49.97 17.8277 44.4374C20.0477 41.915 20.8425 36.8835 19.1075 36.3327C18.15 36.029 17.7054 36.5666 17.5406 38.2258C16.5612 48.1287 4.916 45.7239 2.69993 35.1612C0.7563 25.8955 10.1203 22.9598 15.4302 31.1703C16.514 32.8461 17.0502 33.1983 17.8576 32.7657C18.6277 32.3537 18.4782 31.2985 17.4184 29.6612C14.7697 25.5713 10.1535 23.1658 6.38452 23.9114ZM78.9281 23.914C70.0319 25.7195 65.0522 38.8803 71.0134 44.8301C76.524 50.3295 86.294 44.9504 88.1598 35.3904C89.5234 28.4013 84.9337 22.6954 78.9281 23.914ZM41.2476 25.7507C35.115 27.0039 31.9474 29.7489 28.3831 36.8988C25.2008 43.2819 21.093 49.2091 17.9466 51.9581C12.5822 56.6454 10.9808 64.608 14.0534 71.3153C14.8993 73.1606 15.4621 73.6829 16.3532 73.4497C17.217 73.2238 17.2762 72.2755 16.5226 70.7372C13.5019 64.5681 14.6335 59.0542 20.1016 53.2917C24.7457 48.3978 27.5093 44.3909 30.4729 38.2544C34.0658 30.8154 37.7909 28.085 44.3448 28.085C50.9943 28.085 54.1686 30.5357 58.3622 38.9056C61.5172 45.2036 64.3226 49.1506 68.889 53.7177C79.574 64.4033 70.3077 81.5325 55.5215 78.4294C50.6102 77.3981 48.7483 77.0964 46.4153 76.9535C43.5421 76.7774 38.983 77.1077 36.4094 77.6772C29.5081 79.2055 27.0395 79.0221 22.3741 76.6359C20.1501 75.499 20.1042 75.487 19.6052 75.9389C16.4628 78.7829 28.201 82.3133 34.9715 80.5604C40.8462 79.0394 47.634 79.0427 53.4297 80.569C70.9263 85.1779 83.832 64.6013 71.0998 52.3973C66.4862 47.9752 63.4914 43.7384 60.0785 36.8058C55.7155 27.9422 49.2108 24.124 41.2476 25.7507ZM82.7874 26.8305C89.4642 30.2546 84.6241 44.0407 76.5758 44.5232C70.0804 44.9125 68.8132 35.0615 74.6003 29.1595C77.1705 26.5381 80.4166 25.6145 82.7874 26.8305ZM39.4933 42.5197C39.2375 42.828 39.1551 43.9012 39.1551 46.9492V50.9714L35.2107 50.972C29.7832 50.9734 30.1726 50.566 30.1726 56.2481C30.1726 61.754 29.726 61.2796 34.9894 61.3646L39.1551 61.4324V65.517C39.1551 70.8369 38.7225 70.4156 44.184 70.4156C49.8069 70.4156 49.3457 70.8369 49.4268 65.616L49.4919 61.4324L53.6755 61.3673C58.8977 61.2862 58.4745 61.7494 58.4745 56.1078C58.4745 50.5826 58.8632 50.9727 53.3672 50.9727H49.3537L49.3816 46.9C49.4009 44.0494 49.3205 42.7204 49.1125 42.4705C48.6434 41.9044 39.9671 41.9489 39.4933 42.5197ZM46.9117 48.5732C46.9163 53.917 46.6718 53.6798 52.1831 53.6798H56.0139V56.264V58.8482H51.9532C46.5741 58.8482 46.9077 58.514 46.9077 63.9016V67.971L44.2624 67.9012L41.6164 67.8314L41.5513 63.6471C41.4709 58.4482 41.8795 58.8482 36.6473 58.8482H32.6338V56.2806V53.7124L36.8267 53.6346C41.9041 53.5409 41.4848 53.9848 41.4895 48.6961L41.4934 44.5743H44.2006H46.9077L46.9117 48.5732Z" fill="#EB5D16"/>
<path fill-rule="evenodd" clip-rule="evenodd" d="M459.811 9.62244C459.049 9.93497 455.843 10.4863 452.689 10.8485C446.143 11.6002 446.294 11.5217 445.747 14.4931C445.364 16.5815 445.432 16.7193 446.823 16.7193C447.64 16.7193 448.939 17.229 449.709 17.8541L451.11 18.9888L451.099 35.8111C451.088 54.9525 450.99 55.6624 448.302 56.3596C446.389 56.8565 445.663 58.0938 445.53 61.0909L445.47 62.426H457.343H469.215V60.2975C469.215 58.6115 468.784 57.7876 467.138 56.3308C462.119 51.888 465.514 36.3079 471.5 36.3079C476.509 36.3079 478.387 51.7646 473.89 55.9654C472.818 56.9671 472.082 58.3999 471.83 59.9754L471.438 62.426H482.495H493.552V60.3969C493.552 57.8085 493.042 56.4911 492.041 56.4911C490.563 56.4911 490.289 55.0198 489.991 45.5092C489.673 35.3431 488.93 32.7498 485.651 30.3858C479.554 25.9911 468.816 27.7622 465.791 33.6618C464.788 35.6203 464.767 35.3895 464.931 23.9669C465.139 9.56957 464.477 7.71679 459.811 9.62244ZM251.939 11.5554C243.382 13.4883 239.787 17.9182 239.787 26.5264C239.787 35.077 242.53 38.5325 253.715 44.0715C263.256 48.7948 265.283 51.529 261.817 54.9941C256.281 60.5299 248.395 55.8484 248.395 47.0269C248.395 45.0091 247.698 44.8424 242.35 45.5749L239.701 45.9387L239.085 52.2534C238.377 59.5346 237.957 58.8615 244.536 61.0236C261.463 66.5899 275.998 60.2446 275.998 47.2898C275.998 39.0181 273.036 35.5546 260.982 29.7383C250.62 24.7378 248.089 21.2871 252.333 17.9486C256.888 14.3665 264.346 19.0129 264.408 25.4751C264.424 27.0201 267.468 27.3422 270.863 26.1578L272.733 25.5071V19.9408C272.733 14.4627 272.707 14.3617 271.1 13.5556C266.809 11.4031 257.098 10.3886 251.939 11.5554ZM118.401 12.658C118.43 16.0879 119.182 17.7964 120.805 18.1217C123.865 18.7324 124.035 19.7357 124.035 37.2567C124.035 54.8306 123.819 56.1176 120.753 56.7908C119.53 57.06 119.034 57.6017 118.76 58.9705C118.025 62.6471 117.114 62.426 133.015 62.426H147.634L147.234 59.9257C147.015 58.5506 146.779 57.4094 146.714 57.3886C138.588 54.9268 138.875 55.7394 138.875 35.226V18.2035L141.721 18.0208C144.273 17.8573 144.771 18.0448 146.557 19.8302C152.458 25.7315 150.167 40.4638 143.348 40.4638C141.899 40.4638 141.625 40.7474 141.274 42.6178C140.705 45.6502 141.447 46.1118 146.771 46.0445C165.982 45.8008 172.518 19.1555 154.803 13.3104C150.823 11.9977 118.392 11.4159 118.401 12.658ZM221.386 17.4438C220.08 18.1409 217.676 19.016 216.043 19.3911L213.075 20.069L212.901 24.3307L212.727 28.5908H210.419C207.984 28.5908 207.93 28.6581 207.136 32.5976C206.771 34.4103 206.85 34.5272 208.428 34.5353C212.919 34.5561 212.775 34.2308 212.805 44.5395C212.85 60.9787 218.091 65.8622 231.477 61.9355C235.131 60.8649 235.473 60.4995 235.032 58.1435L234.641 56.0631L231.309 56.1272C226.707 56.2186 226.451 55.6063 226.44 44.4978L226.432 35.7694L228.658 35.1523C229.882 34.8126 231.626 34.5321 232.535 34.5305C234.288 34.5273 234.441 34.3013 235.019 30.8169L235.389 28.5908H230.91H226.432V23.5069C226.432 16.011 225.706 15.139 221.386 17.4438ZM430.982 16.6312C430.616 17.2226 426.659 18.7436 423.062 19.6732L420.54 20.3271V24.4589V28.5908H418.235C415.76 28.5908 415.224 29.3553 415.206 32.8941C415.198 34.3045 415.433 34.5272 416.929 34.5272C420.57 34.5272 420.54 34.4471 420.54 43.9802C420.54 59.2493 422.76 62.6632 432.709 62.6968C439.037 62.7177 443.101 61.256 443.087 58.9641C443.074 56.5151 442.46 56.0984 438.949 56.1481C434.697 56.2074 434.272 55.1095 434.225 43.9048L434.192 35.7694L436.418 35.1523C437.642 34.8126 439.479 34.5321 440.5 34.5305C442.101 34.5273 442.406 34.274 442.726 32.6713C443.541 28.5956 443.536 28.5908 438.644 28.5908H434.192V23.071C434.192 17.6329 433.724 16.1247 432.031 16.1247C431.626 16.1247 431.155 16.3523 430.982 16.6312ZM181.911 28.1933C165.51 32.0046 163.287 56.4093 178.879 61.498C187.806 64.4117 203.28 61.7961 203.28 57.3741C203.28 53.9491 202.487 53.4827 198.985 54.8483C191.329 57.8325 184.568 55.6048 182.81 49.516L182.424 48.1793H192.244H202.064L202.969 46.4291C208.292 36.1332 195.481 25.0391 181.911 28.1933ZM350.494 28.0218C348.372 28.3215 345.434 28.9177 343.965 29.3488L341.293 30.1326V34.9696C341.293 40.4301 341.302 40.4397 346.412 40.4541C349.138 40.4637 349.157 40.4477 349.521 38.1783C350.797 30.1967 359.992 31.1038 359.992 39.212C359.992 40.8164 359.864 40.8757 353.908 42.0585C344.146 43.9962 339.32 46.9468 338.02 51.7726C334.916 63.301 353.339 67.3816 360.811 56.8212C361.555 55.7714 361.62 55.89 361.561 58.1515C361.46 62.0173 363.093 63.3395 366.491 62.1407C367.908 61.6406 370.921 61.0588 373.186 60.8489C376.822 60.5107 377.369 60.2975 377.849 59.033C378.894 56.2827 378.535 54.8867 376.688 54.5165C374.376 54.0549 374.152 53.2648 373.711 44.0251C373.025 29.6342 367.255 25.6578 350.494 28.0218ZM391.989 27.9657C378.93 30.3602 379.008 43.2253 392.114 48.5496C397.509 50.7421 399.171 52.0579 399.171 54.135C399.171 59.1949 390.904 57.2251 389.91 51.9297L389.513 49.8141L386.522 50.1683C382.695 50.6218 382.706 50.6058 382.449 56.0054L382.233 60.5668L385.507 61.4659C409.949 68.1701 424.978 50.9344 402.732 41.7107C396.839 39.2682 394.917 37.7071 395.129 35.5338C395.491 31.7802 401.006 32.5655 402.802 36.6268C404.101 39.5598 404.078 39.5518 407.835 38.6062L410.497 37.9347L410.324 33.766L410.151 29.5973L407.856 28.8039C404.956 27.8038 395.58 27.3086 391.989 27.9657ZM548.462 28.025C546.503 28.3295 543.698 28.9289 542.229 29.3569L539.557 30.1358L539.776 34.8542C540.023 40.2137 540.209 40.4413 544.343 40.4541L547.346 40.4638L548.109 37.4891C549.941 30.3377 557.596 31.2208 558.344 38.6703L558.552 40.7378L552.3 42.0088C541.07 44.2927 536.805 47.4629 536.399 53.8209C535.757 63.9165 552.231 66.6043 558.725 57.4623L560.036 55.616V58.3358C560.036 62.5862 561.086 63.1696 566.269 61.8073C568.555 61.2063 571.663 60.6982 573.176 60.679C576.136 60.6437 576.631 60.0251 576.649 56.342C576.655 55.1223 576.368 54.7088 575.512 54.7088C573.099 54.7088 572.672 53.3834 572.389 44.9979C571.879 29.9867 565.401 25.3917 548.462 28.025ZM278.887 29.3328C279.085 30.0669 279.25 31.2769 279.254 32.019C279.259 32.8941 279.764 33.5592 280.686 33.9102C282.987 34.7853 283.756 36.4409 288.201 50.0689L292.426 63.0206H294.674C298.5 63.0206 300.691 62.3458 301.218 61.0075C301.489 60.3184 303.223 56.5584 305.068 52.6509L308.426 45.546L309.828 49.6827C310.599 51.9586 312.194 55.9253 313.372 58.4993L315.515 63.1809L319.124 62.8539C323.677 62.4404 323.07 63.3651 327 50.851C331.744 35.7437 331.96 35.2196 333.848 34.2436C334.928 33.6842 335.626 32.7434 335.872 31.5109C336.6 27.8663 336.852 27.9978 329.125 27.9978H322.001V30.1278C322.001 31.7529 322.424 32.6312 323.783 33.822C325.947 35.7213 325.988 36.8544 324.129 43.1339C322.52 48.5655 323.1 49.0688 319.308 38.9572C315.167 27.9096 315.226 27.9978 311.958 27.9978H309.092L305.347 37.1878C303.286 42.2428 301.457 46.2352 301.281 46.0589C299.758 44.5363 298.426 33.9326 299.757 33.9326C300.768 33.9326 301.819 31.6455 301.819 29.4434V27.9978H290.174H278.53L278.887 29.3328ZM493.552 30.0268C493.552 32.5623 494.06 33.9326 494.996 33.9326C496.926 33.9326 499.691 39.0197 508.145 58.1146C511.823 66.4232 511.919 67.0386 509.828 69.0003C508.142 70.5838 501 70.9589 497.62 69.643C493.02 67.8528 494.676 78.0894 499.298 80.0207C508.336 83.7967 511.825 79.7947 522.922 52.9282C529.387 37.276 530.676 34.694 532.277 34.1859C533.51 33.7948 534.511 31.6696 534.511 29.4434V27.9978H527.31H520.109L520.478 30.2239C520.68 31.4484 520.848 32.7514 520.851 33.1217C520.856 33.4919 521.391 33.9343 522.042 34.1042C524.113 34.6459 524.055 36.2294 521.739 42.4399C519.138 49.4166 518.771 49.9968 518.257 47.9501C518.05 47.1215 516.787 44.1581 515.453 41.3613C512.867 35.9457 512.83 34.8414 515.205 33.939C516.197 33.5624 516.707 32.9117 516.712 32.019C516.716 31.2769 516.881 30.0669 517.077 29.3328L517.436 27.9978H505.494H493.552V30.0268ZM189.473 33.6538C190.878 34.6395 191.994 37.8401 191.999 40.9077L192.002 42.8374H186.889H181.776L182.198 40.0262C183.11 33.9422 186.12 31.3058 189.473 33.6538ZM359.856 48.2082C359.38 53.1494 354.477 56.6738 351.8 53.9972C349.004 51.2004 353.342 46.5285 359.92 45.2559C360.043 45.2319 360.014 46.5605 359.856 48.2082ZM558.408 47.5879C557.975 52.0162 555.749 54.7088 552.523 54.7088C547.904 54.7088 548.566 49.6346 553.512 47.1247C556.905 45.4018 558.605 45.5637 558.408 47.5879Z" fill="#EB5D16"/>
</g>
</g>
<defs>
<clipPath id="clip0_242_61">
<rect width="577" height="82" fill="white"/>
</clipPath>
</defs>
</svg>
